<svg width="16" height="16" viewBox="0 0 16 16" fill="none" xmlns="http://www.w3.org/2000/svg">
<path fill-rule="evenodd" clip-rule="evenodd" d="M10.6667 4H13.3334C14.0734 4 14.6667 4.59333 14.6667 5.33333V12.6667C14.6667 13.4067 14.0734 14 13.3334 14H2.66671C1.92671 14 1.33337 13.4067 1.33337 12.6667L1.34004 5.33333C1.34004 4.59333 1.92671 4 2.66671 4H5.33337V2.66667C5.33337 1.92667 5.92671 1.33333 6.66671 1.33333H9.33337C10.0734 1.33333 10.6667 1.92667 10.6667 2.66667V4ZM6.66671 4H9.33337V2.66667H6.66671V4ZM7.33337 9.33333V7.66667H7.83337V9.05L9.00671 9.74667L8.75004 10.1733L7.33337 9.33333ZM10.6667 6V8.33333H8.33337L9.31671 7.35C8.89337 6.93 8.31004 6.66667 7.66671 6.66667C6.38004 6.66667 5.33337 7.71333 5.33337 9C5.33337 10.2867 6.38004 11.3333 7.66671 11.3333C8.95337 11.3333 10 10.2867 10 9H10.6667C10.6667 10.6567 9.32337 12 7.66671 12C6.01004 12 4.66671 10.6567 4.66671 9C4.66671 7.34333 6.01004 6 7.66671 6C8.49671 6 9.24671 6.33667 9.78671 6.88L10.6667 6Z" fill="url(#paint0_radial_687_10786)"/>
<defs>
<radialGradient id="paint0_radial_687_10786" cx="0" cy="0" r="1" gradientUnits="userSpaceOnUse" gradientTransform="translate(3.92893 3.23041) rotate(44.5863) scale(12.8055 25.0696)">
<stop stop-color="#3340A0"/>
<stop offset="0.937833" stop-color="#2C3580"/>
</radialGradient>
</defs>
</svg>
