<svg width="16" height="17" viewBox="0 0 16 17" fill="none" xmlns="http://www.w3.org/2000/svg">
<path d="M15.3333 14.9933L14.36 14.02L4.80666 4.46666L2.16666 1.82666L1.32666 2.66666L3.12666 4.46666H2.69999C1.95999 4.46666 1.37333 5.05999 1.37333 5.79999L1.36666 13.1333C1.36666 13.8733 1.95999 14.4667 2.69999 14.4667H13.1267L14.4933 15.8333L15.3333 14.9933ZM14.6667 5.79999C14.7 5.05999 14.1067 4.46666 13.3667 4.49999H10.7V3.13333C10.7 2.39333 10.1067 1.79999 9.36666 1.83333H6.69999C5.95999 1.79999 5.36666 2.39333 5.36666 3.13333V3.34666L14.6667 12.68V5.79999ZM9.36666 4.49999H6.66666V3.13333H9.36666V4.49999Z" fill="#BDBDBD"/>
</svg>
