<svg width="24" height="24" viewBox="0 0 24 24" fill="none" xmlns="http://www.w3.org/2000/svg">
<path d="M18.3743 21H5.62547C4.63167 20.9972 3.67937 20.6012 2.97654 19.8986C2.2737 19.196 1.87743 18.2438 1.87427 17.25V6.75C1.87743 5.7562 2.2737 4.80403 2.97654 4.10142C3.67937 3.39881 4.63167 3.00285 5.62547 3H18.3743C19.3681 3.00285 20.3204 3.39881 21.0232 4.10142C21.726 4.80403 22.1223 5.7562 22.1255 6.75V17.25C22.1223 18.2438 21.726 19.196 21.0232 19.8986C20.3204 20.6012 19.3681 20.9972 18.3743 21ZM20.6255 9.75H13.8743C13.2775 9.75 12.7052 9.98705 12.2833 10.409C11.8613 10.831 11.6243 11.4033 11.6243 12C11.6243 12.5967 11.8613 13.169 12.2833 13.591C12.7052 14.0129 13.2775 14.25 13.8743 14.25H20.6255V9.75ZM13.8743 15.75C12.8797 15.75 11.9259 15.3549 11.2226 14.6517C10.5194 13.9484 10.1243 12.9946 10.1243 12C10.1243 11.0054 10.5194 10.0516 11.2226 9.34835C11.9259 8.64509 12.8797 8.25 13.8743 8.25H20.6255V6.75C20.6236 6.15364 20.3857 5.58226 19.9639 5.16068C19.5421 4.7391 18.9706 4.50158 18.3743 4.5H5.62547C5.02911 4.50158 4.45761 4.7391 4.0358 5.16068C3.614 5.58226 3.37617 6.15364 3.37427 6.75V17.25C3.37617 17.8464 3.614 18.4177 4.0358 18.8393C4.45761 19.2609 5.02911 19.4984 5.62547 19.5H18.3743C18.9706 19.4984 19.5421 19.2609 19.9639 18.8393C20.3857 18.4177 20.6236 17.8464 20.6255 17.25V15.75H13.8743Z" fill="#323335"/>
<path d="M13.1257 12C13.1257 11.8516 13.1697 11.7066 13.2522 11.5832C13.3347 11.4598 13.4519 11.3637 13.589 11.307C13.7261 11.2502 13.8769 11.2355 14.0225 11.2645C14.168 11.2935 14.3016 11.3651 14.4065 11.4701C14.5113 11.5751 14.5826 11.7089 14.6114 11.8544C14.6402 12 14.6252 12.1508 14.5683 12.2879C14.5113 12.4249 14.415 12.5419 14.2915 12.6242C14.168 12.7065 14.0229 12.7502 13.8745 12.75C13.7761 12.75 13.6786 12.7306 13.5877 12.6929C13.4967 12.6552 13.4141 12.5999 13.3446 12.5303C13.2751 12.4606 13.2199 12.3779 13.1824 12.2869C13.1448 12.1959 13.1255 12.0984 13.1257 12Z" fill="#323335"/>
</svg>
