<svg width="24" height="24" viewBox="0 0 24 24" fill="none" xmlns="http://www.w3.org/2000/svg">
<path d="M5.40007 6.86667H12.7334C12.9279 6.86667 13.1144 6.94394 13.2519 7.08146C13.3895 7.21899 13.4667 7.40551 13.4667 7.6C13.4667 7.79449 13.3895 7.98102 13.2519 8.11854C13.1144 8.25607 12.9279 8.33333 12.7334 8.33333H5.40007C5.20558 8.33333 5.01906 8.25607 4.88153 8.11854C4.74401 7.98102 4.66675 7.79449 4.66675 7.6C4.66675 7.40551 4.74401 7.21899 4.88153 7.08146C5.01906 6.94394 5.20558 6.86667 5.40007 6.86667ZM5.40007 9.8H9.80007C9.99457 9.8 10.1811 9.87726 10.3186 10.0148C10.4561 10.1523 10.5334 10.3388 10.5334 10.5333C10.5334 10.7278 10.4561 10.9144 10.3186 11.0519C10.1811 11.1894 9.99457 11.2667 9.80007 11.2667H5.40007C5.20558 11.2667 5.01905 11.1894 4.88152 11.0519C4.744 10.9144 4.66674 10.7278 4.66674 10.5333C4.66674 10.3388 4.744 10.1523 4.88152 10.0148C5.01905 9.87726 5.20558 9.8 5.40007 9.8ZM5.40007 12.7333H8.3334C8.52789 12.7333 8.71442 12.8106 8.85195 12.9481C8.98947 13.0856 9.06673 13.2722 9.06673 13.4667C9.06673 13.6612 8.98947 13.8477 8.85195 13.9852C8.71442 14.1227 8.52789 14.2 8.3334 14.2H5.40007C5.20558 14.2 5.01905 14.1227 4.88152 13.9852C4.744 13.8477 4.66674 13.6612 4.66674 13.4667C4.66674 13.2722 4.744 13.0856 4.88152 12.9481C5.01905 12.8106 5.20558 12.7333 5.40007 12.7333ZM17.8667 7.6H16.4001V4.66668C16.4001 4.57037 16.3811 4.47501 16.3443 4.38604C16.3074 4.29706 16.2534 4.21622 16.1853 4.14812C16.1172 4.08002 16.0364 4.02601 15.9474 3.98915C15.8584 3.9523 15.763 3.93333 15.6667 3.93333H3.9334C3.83709 3.93333 3.74173 3.9523 3.65276 3.98915C3.56379 4.02601 3.48295 4.08002 3.41485 4.14812C3.34676 4.21622 3.29274 4.29706 3.25589 4.38604C3.21904 4.47501 3.20007 4.57037 3.20007 4.66668V19.3333C3.20007 19.4296 3.21904 19.525 3.25589 19.614C3.29274 19.7029 3.34676 19.7838 3.41485 19.8519C3.48295 19.92 3.56379 19.974 3.65276 20.0109C3.74173 20.0477 3.83709 20.0667 3.9334 20.0667H12.0001V21.5333H3.20007C2.81109 21.5333 2.43804 21.3788 2.16298 21.1038C1.88793 20.8287 1.7334 20.4557 1.7334 20.0667V3.93333C1.7334 3.54435 1.88793 3.1713 2.16298 2.89625C2.43804 2.6212 2.81109 2.46667 3.20007 2.46667H16.4001C16.7891 2.46667 17.1621 2.6212 17.4372 2.89625C17.7122 3.1713 17.8667 3.54435 17.8667 3.93333V7.6ZM18.6001 17.8667H20.8001C20.9946 17.8667 21.1811 17.9439 21.3186 18.0815C21.4561 18.219 21.5334 18.4055 21.5334 18.6C21.5334 18.7945 21.4561 18.981 21.3186 19.1185C21.1811 19.2561 20.9946 19.3333 20.8001 19.3333H14.9334C14.7389 19.3333 14.5524 19.2561 14.4149 19.1185C14.2773 18.981 14.2001 18.7945 14.2001 18.6C14.2001 18.4055 14.2773 18.219 14.4149 18.0815C14.5524 17.9439 14.7389 17.8667 14.9334 17.8667H17.1334V16.3267C16.2451 16.1427 15.4565 15.636 14.9198 14.9045C14.3832 14.1731 14.1367 13.2687 14.2279 12.3661C14.3191 11.4636 14.7415 10.6268 15.4135 10.0174C16.0856 9.40804 16.9596 9.06932 17.8667 9.06668C18.776 9.06578 19.6532 9.40278 20.328 10.0122C21.0028 10.6217 21.4271 11.4602 21.5185 12.3649C21.6098 13.2695 21.3618 14.1759 20.8225 14.908C20.2832 15.6401 19.4912 16.1457 18.6001 16.3267V17.8667ZM17.8667 14.9333C18.4502 14.9333 19.0098 14.7015 19.4224 14.289C19.835 13.8764 20.0667 13.3168 20.0667 12.7333C20.0667 12.1499 19.835 11.5903 19.4224 11.1777C19.0098 10.7651 18.4502 10.5333 17.8667 10.5333C17.2833 10.5333 16.7237 10.7651 16.3111 11.1777C15.8985 11.5903 15.6667 12.1499 15.6667 12.7333C15.6667 13.3168 15.8985 13.8764 16.3111 14.289C16.7237 14.7015 17.2833 14.9333 17.8667 14.9333ZM14.2001 20.0667H21.5334C21.7279 20.0667 21.9144 20.1439 22.0519 20.2815C22.1895 20.419 22.2667 20.6055 22.2667 20.8C22.2667 20.9945 22.1895 21.181 22.0519 21.3185C21.9144 21.4561 21.7279 21.5333 21.5334 21.5333H14.2001C14.0056 21.5333 13.8191 21.4561 13.6815 21.3185C13.544 21.181 13.4667 20.9945 13.4667 20.8C13.4667 20.6055 13.544 20.419 13.6815 20.2815C13.8191 20.1439 14.0056 20.0667 14.2001 20.0667Z" fill="#828282"/>
</svg>
