<svg width="16" height="16" viewBox="0 0 16 16" fill="none" xmlns="http://www.w3.org/2000/svg">
<path fill-rule="evenodd" clip-rule="evenodd" d="M12 11.7326C12.424 11.0311 12.6667 10.2131 12.6667 9.33334C12.6667 7.88001 11.9933 6.57334 10.9467 5.72001L11.8933 4.77334C13.18 5.87334 14 7.50668 14 9.33334C14 10.4987 13.6641 11.5862 13.0886 12.506L12 11.7326ZM8 1.33334L10.6667 4.00001L8 6.66668V4.66668C5.42667 4.66668 3.33333 6.76001 3.33333 9.33334C3.33333 10.4533 3.72667 11.4733 4.38667 12.28L3.44 13.2267C2.54667 12.18 2 10.82 2 9.33334C2 6.02001 4.68667 3.33334 8 3.33334V1.33334ZM4.66667 13.6667C4.66667 12.34 7.10667 11.6667 8.33333 11.6667C9.56 11.6667 12 12.34 12 13.6667V14.6667H4.66667V13.6667ZM10 9.00001C10 9.62668 9.64667 10.1667 9.14 10.4533C8.9 10.5867 8.62667 10.6667 8.33333 10.6667C8.04 10.6667 7.76667 10.5867 7.52667 10.4533C7.02 10.1667 6.66667 9.62668 6.66667 9.00001C6.66667 8.08001 7.41333 7.33334 8.33333 7.33334C9.25333 7.33334 10 8.08001 10 9.00001Z" fill="url(#paint0_radial_687_11417)"/>
<defs>
<radialGradient id="paint0_radial_687_11417" cx="0" cy="0" r="1" gradientUnits="userSpaceOnUse" gradientTransform="translate(4.336 3.33027) rotate(49.0604) scale(12.5263 24.2796)">
<stop stop-color="#3340A0"/>
<stop offset="0.937833" stop-color="#2C3580"/>
</radialGradient>
</defs>
</svg>
