<svg width="16" height="16" viewBox="0 0 16 16" fill="none" xmlns="http://www.w3.org/2000/svg">
<path d="M8.33333 6.66666C8.33333 5.56666 7.43333 4.66666 6.33333 4.66666C5.23333 4.66666 4.33333 5.56666 4.33333 6.66666C4.33333 7.76666 5.23333 8.66666 6.33333 8.66666C7.43333 8.66666 8.33333 7.76666 8.33333 6.66666ZM6.33333 7.33333C5.96666 7.33333 5.66666 7.03333 5.66666 6.66666C5.66666 6.3 5.96666 6 6.33333 6C6.69999 6 6.99999 6.3 6.99999 6.66666C6.99999 7.03333 6.69999 7.33333 6.33333 7.33333ZM10.6667 8.66666C11.4067 8.66666 12 8.07333 12 7.33333C12 6.59333 11.4067 6 10.6667 6C9.92666 6 9.32666 6.59333 9.33333 7.33333C9.33333 8.07333 9.92666 8.66666 10.6667 8.66666ZM7.99333 1.34C4.31333 1.34 1.32666 4.32666 1.32666 8.00666C1.32666 11.6867 4.31333 14.6733 7.99333 14.6733C11.6733 14.6733 14.66 11.6867 14.66 8.00666C14.66 4.32666 11.6733 1.34 7.99333 1.34V1.34ZM3.89333 11.4133C4.34666 11.0533 5.40666 10.6733 6.33333 10.6733C6.37999 10.6733 6.43333 10.68 6.48666 10.68C6.64666 10.2533 6.93333 9.82 7.35333 9.44C6.97999 9.37333 6.62666 9.33333 6.33333 9.33333C5.46666 9.33333 4.07333 9.63333 3.17999 10.2867C2.84666 9.59333 2.65999 8.82 2.65999 8C2.65999 5.06 5.05333 2.66666 7.99333 2.66666C10.9333 2.66666 13.3267 5.06 13.3267 8C13.3267 8.8 13.1467 9.56 12.8267 10.2467C12.16 9.85333 11.2533 9.66666 10.6667 9.66666C9.65333 9.66666 7.66666 10.2067 7.66666 11.4667V13.32C6.15333 13.2333 4.80666 12.5133 3.89333 11.4133V11.4133Z" fill="url(#paint0_radial_687_11449)"/>
<defs>
<radialGradient id="paint0_radial_687_11449" cx="0" cy="0" r="1" gradientUnits="userSpaceOnUse" gradientTransform="translate(3.92222 3.33692) rotate(46.0555) scale(13.1419 25.7135)">
<stop stop-color="#3340A0"/>
<stop offset="0.937833" stop-color="#2C3580"/>
</radialGradient>
</defs>
</svg>
