<svg width="16" height="16" viewBox="0 0 16 16" fill="none" xmlns="http://www.w3.org/2000/svg">
<path d="M7.66667 1.33334C4.54 1.33334 2 3.87334 2 7.00001C2 10.1267 4.54 12.6667 7.66667 12.6667H8V14.6667C11.24 13.1067 13.3333 10 13.3333 7.00001C13.3333 3.87334 10.7933 1.33334 7.66667 1.33334ZM8.33333 11H7V9.66668H8.33333V11ZM8.33333 8.66668H7C7 6.50001 9 6.66668 9 5.33334C9 4.60001 8.4 4.00001 7.66667 4.00001C6.93333 4.00001 6.33333 4.60001 6.33333 5.33334H5C5 3.86001 6.19333 2.66668 7.66667 2.66668C9.14 2.66668 10.3333 3.86001 10.3333 5.33334C10.3333 7.00001 8.33333 7.16668 8.33333 8.66668Z" fill="url(#paint0_radial_687_8106)"/>
<defs>
<radialGradient id="paint0_radial_687_8106" cx="0" cy="0" r="1" gradientUnits="userSpaceOnUse" gradientTransform="translate(5.32444 1.33335) rotate(66.2276) scale(15.7445 20.1967)">
<stop stop-color="#5BDA97"/>
<stop offset="0.937833" stop-color="#05AEA9"/>
</radialGradient>
</defs>
</svg>
