<svg width="22" height="22" viewBox="0 0 22 22" fill="none" xmlns="http://www.w3.org/2000/svg">
<mask id="mask0_494_15504" style="mask-type:alpha" maskUnits="userSpaceOnUse" x="0" y="0" width="22" height="22">
<path fill-rule="evenodd" clip-rule="evenodd" d="M10.9999 21.6666C5.10888 21.6666 0.333252 16.891 0.333252 11C0.333252 5.10894 5.10888 0.333313 10.9999 0.333313C16.891 0.333313 21.6666 5.10894 21.6666 11C21.6666 16.891 16.891 21.6666 10.9999 21.6666ZM10.9999 20.3333C16.1546 20.3333 20.3333 16.1546 20.3333 11C20.3333 5.84532 16.1546 1.66665 10.9999 1.66665C5.84526 1.66665 1.66659 5.84532 1.66659 11C1.66659 16.1546 5.84526 20.3333 10.9999 20.3333ZM14.2917 6.76262L10.9919 10.0625L7.69204 6.76262C7.43169 6.50227 7.00958 6.50227 6.74923 6.76262C6.48888 7.02297 6.48888 7.44508 6.74923 7.70543L10.0491 11.0053L6.74923 14.3051C6.48888 14.5654 6.48888 14.9876 6.74923 15.2479C7.00958 15.5083 7.43169 15.5083 7.69204 15.2479L10.9919 11.9481L14.2917 15.2479C14.552 15.5083 14.9742 15.5083 15.2345 15.2479C15.4949 14.9876 15.4949 14.5654 15.2345 14.3051L11.9347 11.0053L15.2345 7.70543C15.4949 7.44508 15.4949 7.02297 15.2345 6.76262C14.9742 6.50227 14.552 6.50227 14.2917 6.76262Z" fill="white"/>
</mask>
<g mask="url(#mask0_494_15504)">
<rect x="-1" y="-1" width="24" height="24" fill="white"/>
</g>
</svg>
