<svg width="343" height="114" viewBox="0 0 343 114" fill="none" xmlns="http://www.w3.org/2000/svg">
<g id="&#231;&#167;&#159;&#232;&#181;&#129;">
<mask id="mask0_683_19170" style="mask-type:alpha" maskUnits="userSpaceOnUse" x="0" y="0" width="343" height="114">
<rect id="Rectangle 682" width="343" height="114" rx="8" fill="#C4C4C4"/>
</mask>
<g mask="url(#mask0_683_19170)">
<g id="Group 653">
<g id="&#229;&#143;&#145;&#229;&#141;&#149;&#229;&#141;&#161;&#231;&#137;&#135;">
<path d="M0 8C0 3.58172 3.58172 0 8 0H335C339.418 0 343 3.58172 343 8V106C343 110.418 339.418 114 335 114H7.99999C3.58172 114 0 110.418 0 106V8Z" fill="url(#paint0_linear_683_19170)"/>
<g id="Frame 1219">
<g id="Frame 1226">
<path id="&#229;&#136;&#151;&#232;&#161;&#168;&#230;&#160;&#135;&#233;&#162;&#152; copy 3" d="M22.132 23.776C21.46 24.004 20.728 24.22 19.948 24.424V22.264H22.9C22.996 23.176 23.128 23.968 23.296 24.652C23.416 25.12 23.548 25.564 23.692 25.972C22.816 26.8 21.796 27.436 20.62 27.868L21.088 28.612C22.18 28.18 23.164 27.58 24.028 26.812C24.22 27.244 24.448 27.628 24.688 27.952C25.24 28.672 25.756 29.032 26.248 29.032C26.8 29.032 27.22 28.18 27.508 26.476L26.752 26.08C26.56 27.424 26.356 28.096 26.116 28.108C25.888 28.108 25.576 27.808 25.192 27.232C25 26.956 24.832 26.608 24.664 26.2C25.42 25.396 26.068 24.436 26.62 23.308L25.876 22.912C25.444 23.8 24.928 24.592 24.352 25.288C24.268 25.024 24.184 24.748 24.112 24.436C23.968 23.848 23.86 23.128 23.776 22.264H27.412V21.436H23.704C23.632 20.5 23.596 19.432 23.584 18.22H22.72C22.72 19.396 22.756 20.464 22.828 21.436H19.948V19.636C20.572 19.468 21.172 19.288 21.724 19.096L21.436 18.28C20.116 18.796 18.604 19.144 16.9 19.336L17.08 20.164C17.764 20.068 18.424 19.96 19.06 19.828V21.436H16.588V22.264H19.06V24.628C18.28 24.796 17.452 24.94 16.576 25.084L16.696 25.96C17.512 25.828 18.292 25.672 19.06 25.504V27.784C19.06 28.108 18.892 28.276 18.556 28.276C18.16 28.276 17.752 28.252 17.332 28.216L17.512 29.044H18.844C19.576 29.044 19.948 28.696 19.948 28V25.3C20.716 25.096 21.436 24.88 22.132 24.652V23.776ZM24.904 18.352L24.328 18.904C25.24 19.54 25.948 20.14 26.476 20.692L27.1 20.068C26.5 19.492 25.768 18.928 24.904 18.352ZM28.696 18.676V19.456H32.236V20.524H29.44V23.548H32.596C32.404 23.884 32.2 24.244 31.984 24.616H28.54V25.408H31.504C31.24 25.816 30.976 26.236 30.688 26.656C31.684 26.884 32.68 27.148 33.676 27.448C32.596 27.868 30.976 28.204 28.84 28.456L29.164 29.224C31.756 28.876 33.628 28.396 34.768 27.784C36.1 28.216 37.432 28.708 38.752 29.272L39.292 28.564C38.02 28.06 36.772 27.628 35.548 27.256C36.184 26.74 36.628 26.128 36.868 25.408H39.448V24.616H32.956C33.148 24.28 33.352 23.932 33.568 23.548H38.56V20.524H35.764V19.456H39.304V18.676H28.696ZM34.624 26.98C33.7 26.716 32.8 26.488 31.912 26.296C32.092 26.032 32.284 25.732 32.488 25.408H35.992C35.752 26.032 35.296 26.56 34.624 26.98ZM34.936 20.524H33.064V19.456H34.936V20.524ZM37.732 22.804H35.764V21.28H37.732V22.804ZM34.936 22.804H33.064V21.28H34.936V22.804ZM32.236 22.804H30.268V21.28H32.236V22.804ZM41.392 21.88H44.368C43.528 24.556 42.244 26.656 40.492 28.192L40.936 28.984C42.304 27.868 43.432 26.368 44.308 24.472C44.704 25.312 45.364 26.092 46.3 26.812C45.4 27.4 44.284 27.94 42.94 28.432L43.396 29.236C44.848 28.672 46.072 28.048 47.056 27.352C48.064 28.012 49.336 28.624 50.872 29.188L51.316 28.384C49.924 27.904 48.736 27.376 47.764 26.8C48.748 25.96 49.396 25.024 49.72 23.992V23.248H44.812C44.98 22.816 45.124 22.36 45.268 21.88H51.112V21.052H45.496C45.712 20.164 45.904 19.228 46.06 18.22L45.184 18.112C45.04 19.144 44.848 20.116 44.608 21.052H42.508L43.192 18.688L42.34 18.544L41.392 21.88ZM44.956 24.04H48.844C48.508 24.856 47.896 25.612 47.008 26.308C46.048 25.612 45.364 24.856 44.956 24.04ZM48.076 18.208L47.5 18.772C48.4 19.492 49.108 20.164 49.612 20.8L50.224 20.188C49.648 19.528 48.94 18.868 48.076 18.208ZM58.348 21.352V22.816H55.528C56.104 22.132 56.608 21.388 57.04 20.596H63.28V19.756H57.46C57.676 19.288 57.868 18.784 58.036 18.256L57.16 18.148C56.98 18.7 56.764 19.228 56.5 19.756H52.84V20.596H56.044C55.168 22.06 53.968 23.344 52.444 24.472L52.996 25.192C53.704 24.652 54.352 24.076 54.952 23.464V28.06H55.78V23.62H58.348V29.2H59.176V23.62H61.732V26.668C61.732 27.016 61.54 27.196 61.156 27.196L60.088 27.172L60.304 27.976H61.432C62.176 27.976 62.56 27.592 62.56 26.848V22.816H59.176V21.352H58.348Z" fill="white" fill-opacity="0.6"/>
<path id="&#229;&#136;&#151;&#232;&#161;&#168;&#230;&#160;&#135;&#233;&#162;&#152;" d="M38.958 36.564H28.48V56.402H26.218V58.768H40.96V56.402H38.958V36.564ZM30.872 56.402V52.034H36.488V56.402H30.872ZM30.872 49.72V45.378H36.488V49.72H30.872ZM30.872 43.064V38.878H36.488V43.064H30.872ZM17.508 42.492V44.858H21.148C20.238 47.536 18.782 49.954 16.78 52.112L17.794 54.686C19.25 52.84 20.472 50.786 21.408 48.524V59.626H23.852V48.472C24.502 49.278 25.282 50.318 26.166 51.618L27.518 49.538C26.296 48.238 25.074 47.068 23.852 45.976V44.858H27.258V42.492H23.852V38.852C24.996 38.618 26.114 38.358 27.18 38.072L26.322 35.784C23.774 36.59 20.888 37.136 17.612 37.422L18.106 39.632C19.25 39.528 20.342 39.398 21.408 39.242V42.492H17.508ZM50.19 40.152V42.336H57.262V43.922H51.438V46.08H65.504V43.922H59.706V42.336H66.466V40.152H59.706V38.358C61.63 38.15 63.32 37.838 64.802 37.474L63.684 35.55C60.408 36.33 56.378 36.72 51.568 36.72L52.218 38.696C53.986 38.696 55.676 38.644 57.262 38.566V40.152H50.19ZM46.264 41.504V46.444H48.76V38.982C49.488 38.098 50.19 37.11 50.84 36.018L48.344 35.446C46.784 37.838 44.912 39.71 42.728 41.062L44.34 42.96C44.99 42.518 45.64 42.024 46.264 41.504ZM63.658 47.38H46.42V55.232H48.89V49.668H61.162V55.102H63.658V47.38ZM56.56 54.868L55.312 56.714C58.718 57.442 62.046 58.43 65.296 59.73L66.596 57.702C63.58 56.584 60.226 55.648 56.56 54.868ZM54.194 50.63C53.83 52.528 52.868 53.984 51.334 55.024C49.774 56.038 47.2 56.818 43.664 57.364L44.626 59.652C48.786 58.924 51.672 57.91 53.284 56.61C55.13 55.18 56.248 53.282 56.612 50.89L54.194 50.63ZM71.744 39.58V50.734H79.778V52.788H69.378V55.128H79.778V59.782H82.222V55.128H92.622V52.788H82.222V50.734H90.256V39.58H85.524C86.252 38.592 86.902 37.5 87.474 36.304L85.082 35.446C84.484 36.902 83.782 38.28 82.95 39.58H77.698L79.258 38.8C78.478 37.604 77.646 36.538 76.762 35.576L74.708 36.564C75.514 37.448 76.268 38.462 76.996 39.58H71.744ZM87.864 48.55H82.222V46.158H87.864V48.55ZM79.778 48.55H74.136V46.158H79.778V48.55ZM74.136 44.078V41.738H79.778V44.078H74.136ZM82.222 41.738H87.864V44.078H82.222V41.738Z" fill="white"/>
</g>
<path id="&#229;&#136;&#151;&#232;&#161;&#168;&#230;&#160;&#135;&#233;&#162;&#152; copy 2" d="M28.222 83.122H22.86V93.86H21.544V94.826H29.398V93.86H28.222V83.122ZM23.826 93.86V91.214H27.214V93.86H23.826ZM23.826 90.262V87.63H27.214V90.262H23.826ZM23.826 86.678V84.074H27.214V86.678H23.826ZM16.854 86.342V87.308H18.968C18.464 88.904 17.638 90.332 16.476 91.606L16.896 92.642C17.806 91.536 18.534 90.29 19.066 88.918V95.414H20.074V89.086C20.494 89.562 20.998 90.206 21.586 91.004L22.132 90.164C21.432 89.394 20.746 88.708 20.074 88.092V87.308H22.02V86.342H20.074V84.088C20.718 83.948 21.348 83.794 21.936 83.626L21.586 82.688C20.228 83.136 18.674 83.444 16.91 83.612L17.106 84.522C17.778 84.452 18.422 84.368 19.066 84.27V86.342H16.854ZM34.41 85.082V85.978H38.344V87.126H35.082V88.022H42.586V87.126H39.338V85.978H43.104V85.082H39.338V83.808C40.402 83.696 41.354 83.542 42.166 83.332L41.704 82.548C39.968 82.968 37.798 83.178 35.166 83.178L35.432 83.99C36.468 83.99 37.434 83.948 38.344 83.892V85.082H34.41ZM32.45 85.306V88.274H33.486V84.228C33.892 83.752 34.256 83.22 34.592 82.66L33.57 82.422C32.758 83.738 31.694 84.816 30.406 85.628L31.064 86.398C31.554 86.062 32.016 85.698 32.45 85.306ZM41.564 88.932H32.506V93.006H33.514V89.87H40.556V92.936H41.564V88.932ZM37.798 92.922L37.28 93.678C39.128 94.098 40.92 94.672 42.67 95.428L43.202 94.588C41.578 93.93 39.772 93.37 37.798 92.922ZM36.72 90.57C36.524 91.662 35.992 92.502 35.152 93.09C34.284 93.678 32.884 94.126 30.952 94.448L31.344 95.372C33.542 94.98 35.082 94.434 35.95 93.748C36.93 92.978 37.518 91.956 37.714 90.668L36.72 90.57ZM54.962 90.136H47.094V95.428H48.088V94.756H53.954V95.428H54.962V90.136ZM48.088 93.776V91.088H53.954V93.776H48.088ZM49.138 82.464C48.186 84.116 46.954 85.46 45.456 86.496L46.1 87.28C46.814 86.776 47.472 86.202 48.074 85.558C48.662 86.258 49.348 86.902 50.132 87.462C48.578 88.33 46.744 88.932 44.63 89.282L45.064 90.192C47.36 89.758 49.334 89.044 51.014 88.036C52.638 89.03 54.612 89.73 56.936 90.136L57.37 89.226C55.242 88.89 53.408 88.302 51.868 87.476C53.03 86.65 54.024 85.656 54.85 84.508V83.696H49.544C49.754 83.374 49.95 83.038 50.146 82.688L49.138 82.464ZM48.662 84.886C48.718 84.802 48.788 84.718 48.872 84.634H53.59C52.862 85.516 51.994 86.286 50.986 86.958C50.09 86.37 49.306 85.67 48.662 84.886ZM67.114 82.618V85.082H64.398V91.424H65.364V90.71H67.114V95.4H68.136V90.71H69.942V91.424H70.922V85.082H68.136V82.618H67.114ZM65.364 89.772V86.034H67.114V89.772H65.364ZM68.136 89.772V86.034H69.942V89.772H68.136ZM58.966 84.55C59.638 84.466 60.268 84.382 60.884 84.284V86.398H58.728V87.364H60.786C60.324 88.96 59.554 90.388 58.462 91.648L58.882 92.698C59.722 91.592 60.38 90.36 60.884 89.016V95.456H61.864V88.946C62.298 89.506 62.816 90.234 63.418 91.13L63.978 90.29C63.264 89.464 62.564 88.722 61.864 88.064V87.364H63.67V86.398H61.864V84.088C62.508 83.948 63.11 83.78 63.684 83.598L63.334 82.66C62.004 83.136 60.478 83.444 58.77 83.612L58.966 84.55ZM72.714 86.832V87.812H76.438C76.144 88.778 75.822 89.702 75.486 90.598H82.402C81.66 91.522 80.638 92.418 79.35 93.258C78.384 92.922 77.376 92.6 76.326 92.32L75.794 93.104C78.02 93.706 80.19 94.518 82.29 95.554L82.85 94.672C82.08 94.308 81.268 93.958 80.428 93.65C81.87 92.614 82.92 91.564 83.592 90.528V89.66H76.928C77.124 89.086 77.334 88.47 77.53 87.812H85.286V86.832H77.796C77.936 86.286 78.076 85.712 78.216 85.096H84.46V84.158H78.426C78.538 83.654 78.636 83.108 78.748 82.548L77.712 82.464C77.6 83.024 77.488 83.584 77.362 84.158H73.666V85.096H77.152C77.012 85.684 76.872 86.258 76.718 86.832H72.714ZM90.97 82.702V93.832H86.798V94.812H99.202V93.832H95.002V82.702H93.98V93.832H91.992V82.702H90.97ZM97.928 85.25C97.326 87.812 96.612 89.926 95.8 91.578L96.71 91.9C97.564 90.066 98.264 87.938 98.824 85.502L97.928 85.25ZM88.002 85.222L87.148 85.502C87.904 87.574 88.534 89.73 89.038 91.97L89.962 91.732C89.388 89.282 88.73 87.112 88.002 85.222ZM109.128 82.562V84.06H106.664V84.97H109.128V86.608H105.894V87.56H113.342V86.608H110.136V84.97H112.726V84.06H110.136V82.562H109.128ZM106.23 89.212V90.164H110.71V93.86C110.71 94.224 110.542 94.42 110.234 94.42C109.702 94.42 109.156 94.392 108.596 94.35L108.806 95.302H110.584C111.312 95.302 111.69 94.896 111.69 94.112V90.164H113.23V89.212H111.69V88.302H110.71V89.212H106.23ZM107.266 90.808L106.482 91.298C107.182 92.096 107.742 92.824 108.148 93.496L108.946 92.936C108.554 92.32 107.994 91.62 107.266 90.808ZM101.974 86.468H103.29V90.178C102.422 90.458 101.54 90.696 100.644 90.878L100.882 91.858C101.694 91.634 102.506 91.396 103.29 91.13V95.4H104.256V90.766C104.69 90.598 105.124 90.416 105.572 90.22V89.268C105.138 89.464 104.704 89.646 104.256 89.828V86.468H105.53V85.488H104.256V82.576H103.29V85.488H102.114C102.184 84.928 102.226 84.354 102.254 83.752L101.33 83.682C101.274 85.292 101.022 86.818 100.588 88.274L101.47 88.526C101.666 87.868 101.834 87.182 101.974 86.468ZM123.114 82.618V85.082H120.398V91.424H121.364V90.71H123.114V95.4H124.136V90.71H125.942V91.424H126.922V85.082H124.136V82.618H123.114ZM121.364 89.772V86.034H123.114V89.772H121.364ZM124.136 89.772V86.034H125.942V89.772H124.136ZM114.966 84.55C115.638 84.466 116.268 84.382 116.884 84.284V86.398H114.728V87.364H116.786C116.324 88.96 115.554 90.388 114.462 91.648L114.882 92.698C115.722 91.592 116.38 90.36 116.884 89.016V95.456H117.864V88.946C118.298 89.506 118.816 90.234 119.418 91.13L119.978 90.29C119.264 89.464 118.564 88.722 117.864 88.064V87.364H119.67V86.398H117.864V84.088C118.508 83.948 119.11 83.78 119.684 83.598L119.334 82.66C118.004 83.136 116.478 83.444 114.77 83.612L114.966 84.55ZM130.982 87.448H134.538V89.898H130.982V87.448ZM130.926 90.822H134.538V94.924H135.574V90.822H139.382V93.258C139.382 93.846 139.116 94.14 138.612 94.14C138.136 94.14 137.618 94.112 137.058 94.084L137.324 95.078H138.934C139.914 95.078 140.404 94.588 140.404 93.608V83.122H129.974V89.842C129.946 91.76 129.484 93.342 128.588 94.588L129.358 95.274C130.254 94.098 130.772 92.614 130.926 90.822ZM139.382 89.898H135.574V87.448H139.382V89.898ZM139.382 86.51H135.574V84.102H139.382V86.51ZM134.538 84.102V86.51H130.982V84.102H134.538ZM143.232 84.368V85.348H146.032C145.346 86.608 144.59 87.672 143.778 88.512L144.002 89.436H148.664V91.494H143.022V92.474H148.664V95.484H149.686V92.474H154.992V91.494H149.686V89.436H153.998V88.512H149.686V86.454H148.664V88.512H145.052C145.808 87.588 146.494 86.538 147.124 85.348H154.754V84.368H147.614C147.852 83.836 148.09 83.29 148.314 82.716L147.306 82.492C147.054 83.15 146.788 83.78 146.522 84.368H143.232Z" fill="white" fill-opacity="0.6"/>
</g>
</g>
<g id="&#231;&#167;&#159;&#232;&#181;&#129;_2" opacity="0.6">
<g id="Group">
<path id="Vector" d="M269.865 25.5345C270.075 26.0684 269.848 26.5699 269.703 27.0715C268.053 32.6206 269.25 37.555 272.841 42.0202C276.012 45.9353 279.086 49.9314 282.209 53.8789C282.338 54.0407 282.467 54.2186 282.613 54.3642C283.632 55.3996 283.843 55.3835 284.765 54.2672C286.819 51.7757 288.761 49.171 290.767 46.6148C292.061 44.9647 293.355 43.3306 294.634 41.6805C295.022 41.1789 295.815 40.9686 295.96 40.4509C296.543 38.5257 297.724 36.827 298.015 34.8047C298.419 32.0059 298.435 29.2394 297.368 26.57C295.345 21.5547 291.721 18.3514 286.383 17.2998C282.031 16.4423 278.018 17.4292 274.524 20.1957C273.262 21.1988 272.13 22.3474 271.288 23.7388C270.9 24.3697 270.463 24.9359 269.913 25.4213C268.764 24.9198 267.583 25.033 266.354 25.1463C264.833 25.2919 263.329 25.5022 261.84 25.8257C259.349 26.3596 256.971 27.2009 254.738 28.4143" stroke="white" stroke-width="2" stroke-miterlimit="10" stroke-linecap="round" stroke-linejoin="round"/>
<path id="Vector_2" d="M269.703 84.2293C269.153 83.5175 268.959 82.7086 268.975 81.8026C268.991 76.8035 268.878 71.7882 269.056 66.7891C269.104 65.4302 268.975 64.1036 268.991 62.7446C268.991 61.418 268.991 60.1075 268.991 58.7809C268.991 58.7 268.991 58.6191 268.991 58.5382C268.975 57.5352 268.473 57.0013 267.454 57.0013C264.04 57.0013 260.611 57.0013 257.197 57.0013C256.647 57.0013 256.145 57.3572 255.66 57.3572C255.175 57.3572 254.689 57.0013 254.123 57.0013C251.599 57.0175 249.059 56.888 246.536 57.066C245.403 57.1469 244.335 57.0822 243.219 57.0336C241.795 56.9689 240.372 57.0175 238.948 57.0175C238.446 57.0175 237.961 57.0175 237.492 56.7748C237.33 56.6939 237.12 56.5968 236.926 56.6939C235.761 57.2601 234.499 56.9528 233.286 57.0013C232.169 57.0498 231.668 57.5028 231.668 58.6191C231.668 67.7113 231.668 76.8035 231.668 85.9119" stroke="white" stroke-width="2" stroke-miterlimit="10" stroke-linecap="round" stroke-linejoin="round"/>
<path id="Vector_3" d="M254.689 28.5275C254.123 28.0745 253.541 27.6377 252.991 27.1524C250.742 25.0977 248.105 24.5315 245.241 25.4051C242.232 26.3111 240.404 28.4952 239.773 31.5205C239.336 33.6399 239.773 35.7269 241.035 37.5712C241.504 38.2668 242.167 38.8493 242.248 39.7552C242.264 39.8361 242.329 39.9494 242.41 39.9979C244.141 41.1628 244.999 43.0718 246.277 44.6087C247.49 46.0648 247.717 46.1457 248.849 44.6896C250.742 42.2791 252.619 39.8685 254.333 37.3447C255.741 35.2577 255.951 32.9604 255.223 30.566C255.029 29.9189 254.738 29.3041 254.673 28.6246" stroke="white" stroke-width="2" stroke-miterlimit="10" stroke-linecap="round" stroke-linejoin="round"/>
<path id="Vector_4" d="M301.04 59.4442C301.558 59.7516 302.173 59.7678 302.739 59.9134C305.974 60.7061 307.997 62.7284 308.757 65.9155C309.259 68.0187 309.016 70.1381 307.722 71.95C305.894 74.5385 304.033 77.1109 301.978 79.5376C301.153 80.5083 301.024 80.751 300.005 79.6185C299.002 78.486 298.274 77.0785 297.206 76.0431C296.219 75.0886 295.62 73.9238 294.811 72.856C293.42 71.0117 292.757 68.9247 293.064 66.6435C293.485 63.3917 295.831 60.7547 299.099 59.9457C299.714 59.8001 300.344 59.6222 300.959 59.4604" stroke="white" stroke-width="2" stroke-miterlimit="10" stroke-linecap="round" stroke-linejoin="round"/>
<path id="Vector_5" d="M285.768 70.1057C285.282 70.316 284.765 70.3484 284.231 70.3484C282.435 70.3484 280.623 70.3807 278.827 70.3322C277.663 70.2998 276.886 71.0279 276.967 72.2089C276.999 72.7913 276.967 73.3899 276.983 73.9885C276.999 75.1048 277.582 75.6872 278.682 75.6872C281.044 75.6872 283.422 75.6872 285.784 75.6872C286.253 75.6872 286.706 75.5578 287.224 75.4284C287.337 73.6973 286.917 72.0633 286.091 70.5263C285.946 70.2675 285.897 70.041 285.913 69.7174C285.93 68.3585 285.752 67.0157 284.813 65.9155C284.182 65.1713 283.309 65.0257 282.387 65.0257C278.083 65.0257 273.78 65.0257 269.476 65.0257" stroke="white" stroke-width="2" stroke-miterlimit="10" stroke-linecap="round" stroke-linejoin="round"/>
<path id="Vector_6" d="M296.025 40.6289C296.931 41.2437 297.352 42.1982 297.805 43.1365C299.196 45.9515 300.086 48.9283 300.62 52.0184C301.04 54.4613 300.992 56.9366 300.959 59.3957" stroke="white" stroke-width="2" stroke-miterlimit="10" stroke-linecap="round" stroke-linejoin="round"/>
<path id="Vector_7" d="M242.345 39.9979C241.326 40.5318 240.986 41.5834 240.501 42.5056C238.899 45.5147 237.896 48.7504 237.379 52.1155C237.152 53.5877 236.845 55.1084 237.104 56.6292" stroke="white" stroke-width="2" stroke-miterlimit="10" stroke-linecap="round" stroke-linejoin="round"/>
<path id="Vector_8" d="M244.999 80.7672C244.999 81.1069 245.257 81.0746 245.484 81.0907C248.315 81.2202 250.402 82.6277 251.826 84.9897C252.279 85.7339 253.217 86.3163 252.942 87.4812C252.748 88.2739 253.071 89.1314 252.926 89.9726C252.716 91.2022 253.169 91.6552 254.447 91.6552C258.799 91.6552 263.167 91.6552 267.519 91.6713C268.004 91.6713 268.425 91.461 268.894 91.4125" stroke="white" stroke-width="2" stroke-miterlimit="10" stroke-linecap="round" stroke-linejoin="round"/>
<path id="Vector_9" d="M268.732 86.3325C264.154 86.3325 259.575 86.3325 255.013 86.3325C254.382 86.3325 253.751 86.3487 253.152 86.5752" stroke="white" stroke-width="2" stroke-miterlimit="10" stroke-linecap="round" stroke-linejoin="round"/>
<path id="Vector_10" d="M250.256 32.9604C250.386 31.569 249.253 30.566 248.072 30.388C246.568 30.1615 245.484 30.9381 245.112 32.2323C244.659 33.8178 245.5 35.015 246.697 35.468C248.428 36.1151 250.03 35.0797 250.337 33.0251" stroke="white" stroke-width="2" stroke-miterlimit="10" stroke-linecap="round" stroke-linejoin="round"/>
<path id="Vector_11" d="M276.886 86.4134C275.446 86.4619 274.217 87.6591 274.314 89.0828C274.395 90.4256 275.203 91.6552 276.967 91.6552C278.682 91.6552 279.62 90.3771 279.636 89.0019C279.636 87.5782 278.455 86.4296 276.967 86.4134" stroke="white" stroke-width="2" stroke-miterlimit="10" stroke-linecap="round" stroke-linejoin="round"/>
<path id="Vector_12" d="M244.918 86.4134C243.381 86.4296 242.329 87.5135 242.329 89.0828C242.329 90.5389 243.494 91.6875 244.999 91.6552C246.633 91.6228 247.522 90.6036 247.652 89.0828C247.765 87.6753 246.471 86.4296 244.999 86.4134" stroke="white" stroke-width="2" stroke-miterlimit="10" stroke-linecap="round" stroke-linejoin="round"/>
<path id="Vector_13" d="M244.999 81.0099C243.64 81.1069 242.329 81.3658 241.116 82.0453C239.724 82.838 238.705 83.9543 237.913 85.2971C237.799 85.4751 237.67 85.6692 237.573 85.8472C237.265 86.4458 236.893 86.6723 236.181 86.4296C235.356 86.1545 234.467 86.3649 233.609 86.3325C233.318 86.3163 232.962 86.4296 232.735 86.3163C231.862 85.8795 231.053 86.2193 230.228 86.4134C229.289 86.6237 229.063 87.1738 229.031 87.7886C228.982 88.5975 228.998 89.4064 229.031 90.2153C229.063 90.9919 229.581 91.6713 230.309 91.639C232.509 91.5905 234.742 91.9302 236.926 91.4125" stroke="white" stroke-width="2" stroke-miterlimit="10" stroke-linecap="round" stroke-linejoin="round"/>
<path id="Vector_14" d="M301.04 65.0257C302.965 65.2522 303.904 66.7892 303.548 68.2614C303.24 69.5395 302.059 70.4778 300.797 70.3646C299.39 70.2351 298.387 69.1512 298.371 67.776C298.355 66.1744 299.083 65.3978 300.959 65.0257" stroke="white" stroke-width="2" stroke-miterlimit="10" stroke-linecap="round" stroke-linejoin="round"/>
<path id="Vector_15" d="M287.143 75.5092C288.13 76.4961 288.081 77.8713 288.518 79.0685C288.583 79.2464 288.583 79.4729 288.696 79.6347C289.829 81.1555 289.343 83.0645 289.845 84.747C290.087 85.5721 290.007 86.5105 290.265 87.4003C290.492 88.2254 290.314 89.1637 290.314 90.0535C290.314 91.1536 289.812 91.6713 288.696 91.6552C287.483 91.639 286.253 91.8008 285.056 91.4125" stroke="white" stroke-width="2" stroke-miterlimit="10" stroke-linecap="round" stroke-linejoin="round"/>
<path id="Vector_16" d="M276.967 80.7672C276.967 81.1069 277.226 81.0746 277.452 81.0907C280.397 81.2364 282.532 82.7248 283.972 85.2162C284.393 85.9442 285.137 86.5266 284.943 87.643C284.813 88.4195 284.862 89.3093 284.975 90.1344C285.137 91.186 284.522 91.8978 284.085 92.7229C282.985 94.7452 281.319 96.0718 279.151 96.7513C276.19 97.6735 272.89 96.3954 271.126 94.4378C270.301 93.5318 269.913 92.367 269.039 91.5096C268.894 91.3801 268.975 91.2992 268.959 91.1698C268.926 89.6167 269.12 88.0474 268.862 86.4943C268.829 86.2516 268.959 86.1545 269.039 86.0089C269.234 85.5883 269.476 85.2 269.525 84.7147C269.541 84.5367 269.573 84.2779 269.768 84.2455C271.062 83.9705 271.757 82.8218 272.825 82.1909C274.119 81.4305 275.495 81.0907 276.951 80.9937" stroke="white" stroke-width="2" stroke-miterlimit="10" stroke-linecap="round" stroke-linejoin="round"/>
<path id="Vector_17" d="M252.991 91.4125C252.085 92.2699 251.713 93.5157 250.823 94.4216C249.48 95.7968 247.943 96.5895 246.05 96.9455C244.432 97.2528 243.025 96.816 241.601 96.2498C240.048 95.6188 238.996 94.3893 238.01 93.0627C237.12 91.8493 236.926 90.5874 236.974 89.1637C237.006 88.3386 237.217 87.4812 236.909 86.6561" stroke="white" stroke-width="2" stroke-miterlimit="10" stroke-linecap="round" stroke-linejoin="round"/>
<path id="Vector_18" d="M244.999 57.5028C244.999 59.5251 245.015 61.5474 244.982 63.5535C244.966 64.2653 245.112 64.9286 245.403 65.5758" stroke="white" stroke-width="2" stroke-miterlimit="10" stroke-linecap="round" stroke-linejoin="round"/>
<path id="Vector_19" d="M255.66 57.5028C255.66 59.606 255.709 61.7092 255.644 63.7962C255.579 65.8023 255.223 65.9802 253.395 65.236C252.699 64.9448 252.036 64.5727 251.373 64.1844C250.629 63.7638 249.917 63.8285 249.189 64.1844C248.493 64.5404 247.797 64.8801 247.086 65.236C246.972 65.2846 246.875 65.3978 246.762 65.3978C245.225 65.3331 244.772 66.4979 244.222 67.5819" stroke="white" stroke-width="2" stroke-miterlimit="10" stroke-linecap="round" stroke-linejoin="round"/>
<path id="Vector_20" d="M295.782 74.8621C294.148 76.5447 292.854 78.5346 291.107 80.1201C290.638 80.5569 290.152 80.929 289.489 81.0099" stroke="white" stroke-width="2" stroke-miterlimit="10" stroke-linecap="round" stroke-linejoin="round"/>
<path id="Vector_21" d="M255.256 65.6567C255.789 66.5788 256.34 67.4848 256.873 68.407" stroke="white" stroke-width="2" stroke-miterlimit="10" stroke-linecap="round" stroke-linejoin="round"/>
<path id="Vector_22" d="M247.668 45.8059C247.668 46.6634 247.668 47.5208 247.668 48.3944" stroke="white" stroke-width="2" stroke-miterlimit="10" stroke-linecap="round" stroke-linejoin="round"/>
<path id="Vector_23" d="M282.872 22.396C280.882 22.5901 279.151 23.3181 277.614 24.6447C275.883 26.1493 274.831 27.9613 274.475 30.2262C273.942 33.5104 274.977 36.2769 277.323 38.5257C278.714 39.8685 280.429 40.6127 282.387 40.9039C287.58 41.6481 291.98 38.0889 292.838 33.3648C293.42 30.1777 292.498 27.298 290.071 24.9683C288.065 23.0431 285.687 22.2665 282.953 22.396" stroke="white" stroke-width="2" stroke-miterlimit="10" stroke-linecap="round" stroke-linejoin="round"/>
</g>
</g>
</g>
</g>
</g>
<defs>
<linearGradient id="paint0_linear_683_19170" x1="171.5" y1="2.60835e-06" x2="186.136" y2="106.464" gradientUnits="userSpaceOnUse">
<stop stop-color="#FD764E"/>
<stop offset="1" stop-color="#FF5740"/>
</linearGradient>
</defs>
</svg>
