<svg width="343" height="114" viewBox="0 0 343 114" fill="none" xmlns="http://www.w3.org/2000/svg">
<g id="&#229;&#174;&#158;&#230;&#150;&#189;">
<g id="&#229;&#143;&#145;&#229;&#141;&#149;&#229;&#141;&#161;&#231;&#137;&#135;">
<path d="M0 8C0 3.58172 3.58172 0 8 0H335C339.418 0 343 3.58172 343 8V106C343 110.418 339.418 114 335 114H7.99999C3.58172 114 0 110.418 0 106V8Z" fill="url(#paint0_linear_683_18047)"/>
<g id="Frame 1219">
<g id="Frame 1226">
<path id="&#229;&#136;&#151;&#232;&#161;&#168;&#230;&#160;&#135;&#233;&#162;&#152; copy 3" d="M22.132 23.776C21.46 24.004 20.728 24.22 19.948 24.424V22.264H22.9C22.996 23.176 23.128 23.968 23.296 24.652C23.416 25.12 23.548 25.564 23.692 25.972C22.816 26.8 21.796 27.436 20.62 27.868L21.088 28.612C22.18 28.18 23.164 27.58 24.028 26.812C24.22 27.244 24.448 27.628 24.688 27.952C25.24 28.672 25.756 29.032 26.248 29.032C26.8 29.032 27.22 28.18 27.508 26.476L26.752 26.08C26.56 27.424 26.356 28.096 26.116 28.108C25.888 28.108 25.576 27.808 25.192 27.232C25 26.956 24.832 26.608 24.664 26.2C25.42 25.396 26.068 24.436 26.62 23.308L25.876 22.912C25.444 23.8 24.928 24.592 24.352 25.288C24.268 25.024 24.184 24.748 24.112 24.436C23.968 23.848 23.86 23.128 23.776 22.264H27.412V21.436H23.704C23.632 20.5 23.596 19.432 23.584 18.22H22.72C22.72 19.396 22.756 20.464 22.828 21.436H19.948V19.636C20.572 19.468 21.172 19.288 21.724 19.096L21.436 18.28C20.116 18.796 18.604 19.144 16.9 19.336L17.08 20.164C17.764 20.068 18.424 19.96 19.06 19.828V21.436H16.588V22.264H19.06V24.628C18.28 24.796 17.452 24.94 16.576 25.084L16.696 25.96C17.512 25.828 18.292 25.672 19.06 25.504V27.784C19.06 28.108 18.892 28.276 18.556 28.276C18.16 28.276 17.752 28.252 17.332 28.216L17.512 29.044H18.844C19.576 29.044 19.948 28.696 19.948 28V25.3C20.716 25.096 21.436 24.88 22.132 24.652V23.776ZM24.904 18.352L24.328 18.904C25.24 19.54 25.948 20.14 26.476 20.692L27.1 20.068C26.5 19.492 25.768 18.928 24.904 18.352ZM28.696 18.676V19.456H32.236V20.524H29.44V23.548H32.596C32.404 23.884 32.2 24.244 31.984 24.616H28.54V25.408H31.504C31.24 25.816 30.976 26.236 30.688 26.656C31.684 26.884 32.68 27.148 33.676 27.448C32.596 27.868 30.976 28.204 28.84 28.456L29.164 29.224C31.756 28.876 33.628 28.396 34.768 27.784C36.1 28.216 37.432 28.708 38.752 29.272L39.292 28.564C38.02 28.06 36.772 27.628 35.548 27.256C36.184 26.74 36.628 26.128 36.868 25.408H39.448V24.616H32.956C33.148 24.28 33.352 23.932 33.568 23.548H38.56V20.524H35.764V19.456H39.304V18.676H28.696ZM34.624 26.98C33.7 26.716 32.8 26.488 31.912 26.296C32.092 26.032 32.284 25.732 32.488 25.408H35.992C35.752 26.032 35.296 26.56 34.624 26.98ZM34.936 20.524H33.064V19.456H34.936V20.524ZM37.732 22.804H35.764V21.28H37.732V22.804ZM34.936 22.804H33.064V21.28H34.936V22.804ZM32.236 22.804H30.268V21.28H32.236V22.804ZM41.392 21.88H44.368C43.528 24.556 42.244 26.656 40.492 28.192L40.936 28.984C42.304 27.868 43.432 26.368 44.308 24.472C44.704 25.312 45.364 26.092 46.3 26.812C45.4 27.4 44.284 27.94 42.94 28.432L43.396 29.236C44.848 28.672 46.072 28.048 47.056 27.352C48.064 28.012 49.336 28.624 50.872 29.188L51.316 28.384C49.924 27.904 48.736 27.376 47.764 26.8C48.748 25.96 49.396 25.024 49.72 23.992V23.248H44.812C44.98 22.816 45.124 22.36 45.268 21.88H51.112V21.052H45.496C45.712 20.164 45.904 19.228 46.06 18.22L45.184 18.112C45.04 19.144 44.848 20.116 44.608 21.052H42.508L43.192 18.688L42.34 18.544L41.392 21.88ZM44.956 24.04H48.844C48.508 24.856 47.896 25.612 47.008 26.308C46.048 25.612 45.364 24.856 44.956 24.04ZM48.076 18.208L47.5 18.772C48.4 19.492 49.108 20.164 49.612 20.8L50.224 20.188C49.648 19.528 48.94 18.868 48.076 18.208ZM58.348 21.352V22.816H55.528C56.104 22.132 56.608 21.388 57.04 20.596H63.28V19.756H57.46C57.676 19.288 57.868 18.784 58.036 18.256L57.16 18.148C56.98 18.7 56.764 19.228 56.5 19.756H52.84V20.596H56.044C55.168 22.06 53.968 23.344 52.444 24.472L52.996 25.192C53.704 24.652 54.352 24.076 54.952 23.464V28.06H55.78V23.62H58.348V29.2H59.176V23.62H61.732V26.668C61.732 27.016 61.54 27.196 61.156 27.196L60.088 27.172L60.304 27.976H61.432C62.176 27.976 62.56 27.592 62.56 26.848V22.816H59.176V21.352H58.348Z" fill="white" fill-opacity="0.6"/>
<path id="&#229;&#136;&#151;&#232;&#161;&#168;&#230;&#160;&#135;&#233;&#162;&#152;" d="M29.182 54.556C32.562 55.908 35.864 57.65 39.088 59.834L40.44 57.702C37.424 55.83 34.122 54.166 30.534 52.762C30.638 52.554 30.768 52.346 30.898 52.138H40.076V49.798H31.912C32.432 48.238 32.718 46.496 32.796 44.572V41.4H30.404V44.572C30.3 46.496 29.936 48.238 29.312 49.798H17.95V52.138H28.038L27.596 52.736C25.854 54.712 22.552 56.324 17.716 57.598L19.068 59.704C23.696 58.508 27.076 56.792 29.182 54.556ZM21.668 44.858L20.446 46.704C22.162 47.38 23.852 48.316 25.464 49.538L26.738 47.588C25.204 46.522 23.514 45.612 21.668 44.858ZM24.216 41.218L22.994 43.038C24.71 43.714 26.374 44.676 27.986 45.872L29.26 43.922C27.752 42.856 26.062 41.946 24.216 41.218ZM39.842 37.968H30.352C30.092 37.058 29.806 36.252 29.494 35.524L26.972 35.94C27.284 36.564 27.57 37.24 27.856 37.968H18.106V43.298H20.498V40.23H37.45V43.298H39.842V37.968ZM43.43 39.138V41.53H45.25V45.69C45.224 51.306 44.418 55.414 42.832 57.962L44.678 59.574C46.446 56.844 47.408 52.606 47.564 46.86H49.904C49.852 52.034 49.774 55.076 49.644 55.96C49.462 56.844 48.916 57.286 48.006 57.286C47.642 57.286 47.226 57.234 46.758 57.156L47.304 59.366C47.798 59.418 48.162 59.47 48.37 59.47C50.45 59.47 51.594 58.664 51.854 57.104C52.062 55.518 52.192 51.332 52.192 44.572H47.59V41.53H52.66V39.138H49.592C49.176 37.786 48.734 36.59 48.292 35.524L45.77 35.966C46.29 36.928 46.758 37.994 47.2 39.138H43.43ZM56.404 40.646H66.336V38.332H57.366C57.626 37.604 57.886 36.876 58.146 36.096L55.832 35.576C54.74 38.982 53.44 41.66 51.906 43.584L53.518 45.508C54.584 44.13 55.546 42.518 56.404 40.646ZM65.426 43.532L61.24 45.04V41.764H58.952V45.846L56.95 46.574V43.87H54.766V47.354L52.92 48.004V50.24L54.766 49.59V56.038C54.766 58.326 55.65 59.496 57.418 59.496H63.424C64.516 59.496 65.296 59.288 65.816 58.898C66.388 58.43 66.778 57.104 67.012 54.868L64.88 54.192C64.776 55.726 64.568 56.636 64.256 56.948C63.996 57.208 63.58 57.338 63.034 57.338H58.12C57.34 57.338 56.95 56.74 56.95 55.596V48.81L58.952 48.108V55.778H61.24V47.302L63.216 46.6C63.216 49.304 63.164 50.89 63.112 51.332C63.06 51.826 62.878 52.086 62.592 52.086C62.254 52.086 61.864 52.06 61.422 52.06L62.046 54.14H62.176C63.892 54.14 64.854 53.594 65.088 52.554C65.296 51.514 65.426 48.498 65.426 43.532ZM86.5122 35.68L77.4122 59.6H79.8302L88.9042 35.68H86.5122ZM108.56 54.114C105.986 55.05 102.97 55.804 99.5124 56.35L99.8244 58.82C103.1 58.222 106.012 57.442 108.56 56.48V54.114ZM103.49 35.55C102.632 38.41 101.644 41.01 100.526 43.35C100.214 43.792 99.8764 44.104 99.4864 44.26L100.11 46.522C101.384 46.314 102.606 46.132 103.776 45.95C102.684 48.082 101.748 49.564 101.02 50.448C100.708 50.734 100.344 50.968 99.9024 51.15L100.552 53.386C102.892 52.996 105.388 52.268 107.988 51.202V48.94C106.428 49.616 104.92 50.162 103.438 50.578C104.79 48.654 106.428 45.612 108.404 41.478L106.246 40.672C105.752 41.738 105.284 42.752 104.868 43.688C104.036 43.844 103.204 43.948 102.372 44.052C103.568 42.102 104.712 39.58 105.856 36.486L103.49 35.55ZM112.564 47.484H116.62V50.396H112.564V47.484ZM112.564 52.658H116.62V55.986H112.564V52.658ZM112.564 58.274H123.38V55.986H118.986V52.658H122.418V50.396H118.986V47.484H122.418V45.222H118.986V42.258H122.86V39.918H119.116C118.804 38.618 118.336 37.188 117.764 35.602L115.372 36.252C115.892 37.422 116.36 38.644 116.776 39.918H112.746C113.214 38.722 113.604 37.5 113.916 36.226L111.576 35.758C110.77 39.268 109.392 42.518 107.442 45.482L108.196 47.978C108.924 47.042 109.574 46.08 110.198 45.092V59.626H112.564V58.274ZM116.62 42.258V45.222H112.564V42.258H116.62ZM139.084 35.602C138.356 37.708 136.926 39.476 134.846 40.932L136.25 42.752C136.77 42.388 137.238 41.972 137.706 41.556C138.252 42.362 138.954 43.116 139.838 43.818C138.382 44.442 136.718 44.962 134.794 45.378L135.73 47.588C138.174 46.99 140.306 46.236 142.1 45.3C143.764 46.21 145.844 46.964 148.288 47.562L149.25 45.248C147.456 44.858 145.87 44.39 144.492 43.818C146.052 42.648 147.196 41.27 147.95 39.71V37.604H140.748C141.008 37.084 141.268 36.512 141.476 35.914L139.084 35.602ZM139.266 39.944C139.266 39.892 139.292 39.866 139.344 39.84H145.246C144.492 40.88 143.452 41.79 142.152 42.622C140.904 41.842 139.942 40.958 139.266 39.944ZM130.582 35.602C129.438 39.606 127.618 43.116 125.174 46.132L125.902 48.602C126.682 47.718 127.436 46.808 128.164 45.872V59.704H130.53V42.128C131.466 40.412 132.22 38.566 132.818 36.642L130.582 35.602ZM132.272 40.334V55.05H134.534V40.334H132.272ZM142.724 46.652C141.84 47.276 140.878 47.822 139.864 48.29C138.616 48.81 137.316 49.2 135.938 49.486L137.108 51.436C138.98 50.812 140.436 50.266 141.476 49.772C142.516 49.252 143.504 48.576 144.492 47.77L142.724 46.652ZM145.246 48.602C143.322 50.708 140.436 52.242 136.588 53.178L137.55 55.284C141.658 54.166 144.752 52.346 146.858 49.85L145.246 48.602ZM136.562 59.912C139.084 59.236 141.528 58.222 143.868 56.922C146.208 55.596 147.95 54.036 149.146 52.242L147.404 50.942C146.052 52.606 144.492 53.932 142.672 54.972C140.904 55.986 138.512 56.896 135.522 57.676L136.562 59.912ZM154.06 39.58V50.734H162.094V52.788H151.694V55.128H162.094V59.782H164.538V55.128H174.938V52.788H164.538V50.734H172.572V39.58H167.84C168.568 38.592 169.218 37.5 169.79 36.304L167.398 35.446C166.8 36.902 166.098 38.28 165.266 39.58H160.014L161.574 38.8C160.794 37.604 159.962 36.538 159.078 35.576L157.024 36.564C157.83 37.448 158.584 38.462 159.312 39.58H154.06ZM170.18 48.55H164.538V46.158H170.18V48.55ZM162.094 48.55H156.452V46.158H162.094V48.55ZM156.452 44.078V41.738H162.094V44.078H156.452ZM164.538 41.738H170.18V44.078H164.538V41.738Z" fill="white"/>
</g>
<path id="&#229;&#136;&#151;&#232;&#161;&#168;&#230;&#160;&#135;&#233;&#162;&#152; copy 2" d="M20.62 83.122V84.06H23.63C23.518 84.676 23.364 85.264 23.14 85.824H19.976V86.79H22.692C22.636 86.874 22.58 86.958 22.524 87.056C21.852 88.064 20.858 88.946 19.528 89.674L20.158 90.472C21.558 89.618 22.622 88.652 23.336 87.574C23.476 87.322 23.616 87.07 23.756 86.79H25.1C25.87 88.246 27.186 89.436 29.048 90.346L29.482 89.464C27.97 88.82 26.85 87.924 26.122 86.79H29.062V85.824H24.148C24.344 85.278 24.498 84.69 24.638 84.06H28.446V83.122H20.62ZM21.474 90.514C20.97 91.886 20.368 93.062 19.682 94.056L20.508 94.644C21.194 93.594 21.796 92.348 22.314 90.92L21.474 90.514ZM17.638 82.772L16.938 83.444C17.876 84.088 18.618 84.704 19.15 85.278L19.836 84.592C19.248 83.976 18.506 83.374 17.638 82.772ZM17.302 86.118L16.616 86.79C17.568 87.518 18.31 88.218 18.856 88.862L19.542 88.176C18.94 87.49 18.198 86.804 17.302 86.118ZM18.576 89.982C18.03 91.662 17.386 93.314 16.658 94.91L17.596 95.33C18.268 93.762 18.898 92.096 19.458 90.332L18.576 89.982ZM23.308 95.414C24.008 95.414 24.358 95.008 24.358 94.21V88.848H23.392V93.972C23.392 94.336 23.238 94.532 22.958 94.532C22.594 94.532 22.202 94.504 21.796 94.462L22.006 95.414H23.308ZM27.634 90.178L26.752 90.472C27.368 91.648 27.928 93.02 28.446 94.56L29.342 94.168C28.866 92.754 28.292 91.424 27.634 90.178ZM25.786 90.682L24.932 90.976C25.478 92.152 25.968 93.496 26.416 95.036L27.312 94.63C26.878 93.23 26.374 91.914 25.786 90.682ZM42.754 84.648H38.176V95.19H39.142V94.252H41.774V95.19H42.754V84.648ZM39.142 93.286V85.614H41.774V93.286H39.142ZM33.024 82.604V85.432H30.784V86.412H33.024C32.982 90.248 32.142 93.048 30.518 94.798L31.26 95.456C33.052 93.552 33.976 90.542 34.032 86.412H35.894C35.866 90.164 35.81 92.418 35.726 93.146C35.614 93.944 35.194 94.35 34.48 94.35C34.144 94.35 33.752 94.322 33.304 94.294L33.556 95.218C34.06 95.246 34.41 95.274 34.62 95.274C35.852 95.274 36.538 94.686 36.678 93.538C36.818 92.502 36.888 89.8 36.888 85.432H34.032V82.604H33.024ZM49.53 92.6C48.144 93.132 46.52 93.552 44.672 93.86L44.798 94.868C46.562 94.532 48.144 94.098 49.53 93.566V92.6ZM46.996 82.52C46.478 84.172 45.876 85.642 45.176 86.93C45.05 87.112 44.91 87.238 44.756 87.308L45.008 88.232C45.764 88.106 46.506 87.966 47.234 87.826C46.534 89.17 45.932 90.136 45.442 90.696C45.316 90.808 45.162 90.906 44.98 90.976L45.26 91.9C46.52 91.69 47.836 91.298 49.208 90.738V89.814C48.284 90.22 47.374 90.528 46.45 90.752C47.22 89.716 48.186 87.994 49.362 85.586L48.48 85.25C48.214 85.824 47.962 86.37 47.71 86.902C47.122 87.028 46.534 87.126 45.96 87.21C46.632 86.132 47.304 84.69 47.962 82.898L46.996 82.52ZM51.49 88.75H53.968V90.654H51.49V88.75ZM51.49 91.578H53.968V93.706H51.49V91.578ZM51.49 94.644H57.454V93.706H54.948V91.578H56.936V90.654H54.948V88.75H56.936V87.812H54.948V85.908H57.174V84.956H54.64L55.018 84.816C54.836 84.116 54.584 83.36 54.276 82.52L53.296 82.786C53.604 83.486 53.87 84.214 54.094 84.956H51.546C51.826 84.256 52.05 83.542 52.246 82.786L51.28 82.59C50.818 84.55 50.034 86.342 48.928 87.994L49.236 89.016C49.698 88.4 50.118 87.77 50.51 87.098V95.372H51.49V94.644ZM53.968 85.908V87.812H51.49V85.908H53.968ZM66.106 82.52C65.686 83.696 64.902 84.69 63.754 85.502L64.328 86.258C64.664 86.006 64.972 85.754 65.266 85.474C65.602 86.006 66.078 86.51 66.666 86.958C65.826 87.35 64.832 87.686 63.698 87.952L64.076 88.862C65.434 88.526 66.596 88.092 67.576 87.56C68.486 88.064 69.62 88.484 70.978 88.82L71.37 87.882C70.292 87.63 69.354 87.322 68.542 86.958C69.48 86.286 70.18 85.488 70.642 84.564V83.696H66.638C66.806 83.36 66.96 83.01 67.086 82.646L66.106 82.52ZM65.896 84.802C65.938 84.746 65.98 84.676 66.036 84.62H69.55C69.074 85.32 68.43 85.922 67.59 86.454C66.848 85.978 66.288 85.432 65.896 84.802ZM61.528 82.548C60.898 84.718 59.89 86.636 58.504 88.316L58.798 89.324C59.316 88.764 59.792 88.162 60.226 87.532V95.414H61.192V85.936C61.682 85.012 62.088 84.018 62.424 82.968L61.528 82.548ZM62.438 85.026V92.95H63.348V85.026H62.438ZM68.038 88.47C67.562 88.834 67.058 89.156 66.498 89.436C65.854 89.73 65.14 89.968 64.356 90.164L64.846 90.962C65.798 90.654 66.568 90.346 67.156 90.038C67.702 89.744 68.234 89.38 68.766 88.932L68.038 88.47ZM69.368 89.506C68.332 90.738 66.778 91.634 64.706 92.18L65.112 93.034C67.282 92.418 68.92 91.424 70.04 90.024L69.368 89.506ZM64.552 95.498C65.896 95.134 67.198 94.588 68.458 93.888C69.718 93.16 70.656 92.306 71.272 91.34L70.558 90.808C69.858 91.732 69.004 92.488 68.01 93.062C67.016 93.65 65.728 94.154 64.132 94.574L64.552 95.498ZM84.74 83.514H79.392V94.98H80.358V93.734H83.76V94.84H84.74V83.514ZM80.358 92.782V84.452H83.76V92.782H80.358ZM72.994 86.412V87.35H75.444V87.448C74.87 88.988 73.932 90.374 72.63 91.606L73.05 92.698C74.044 91.62 74.842 90.416 75.444 89.086V95.302H76.424V88.988C76.942 89.576 77.558 90.374 78.286 91.368L78.874 90.5C78.048 89.576 77.236 88.764 76.424 88.05V87.35H78.818V86.412H76.424V84.2C77.208 84.032 77.95 83.808 78.678 83.542L78.202 82.702C76.802 83.234 75.066 83.584 72.98 83.752L73.302 84.648C74.03 84.592 74.744 84.508 75.444 84.396V86.412H72.994ZM93.07 92.6C94.946 93.328 96.766 94.28 98.558 95.484L99.104 94.616C97.452 93.552 95.618 92.642 93.63 91.858C93.756 91.662 93.882 91.452 94.008 91.228H98.922V90.276H94.428C94.736 89.408 94.904 88.414 94.946 87.308V85.656H93.966V87.308C93.924 88.414 93.728 89.408 93.364 90.276H87.092V91.228H92.874C92.734 91.452 92.594 91.662 92.426 91.858C91.39 92.978 89.57 93.888 86.966 94.56L87.526 95.414C90.088 94.742 91.936 93.804 93.07 92.6ZM88.954 87.574L88.45 88.33C89.402 88.708 90.34 89.24 91.236 89.912L91.754 89.114C90.914 88.526 89.976 88.008 88.954 87.574ZM90.214 85.572L89.696 86.328C90.676 86.72 91.642 87.266 92.58 87.966L93.098 87.168C92.23 86.538 91.264 86.006 90.214 85.572ZM98.684 83.934H93.616C93.434 83.388 93.252 82.898 93.07 82.478L92.034 82.646C92.244 83.038 92.44 83.458 92.608 83.934H87.288V86.622H88.268V84.872H97.704V86.622H98.684V83.934ZM100.812 84.536V85.516H101.904V87.91C101.89 91.032 101.442 93.3 100.546 94.714L101.288 95.372C102.254 93.888 102.772 91.55 102.842 88.386H104.424C104.41 91.326 104.354 93.062 104.27 93.622C104.172 94.126 103.864 94.378 103.36 94.378C103.136 94.378 102.898 94.35 102.618 94.322L102.842 95.232C103.15 95.26 103.374 95.274 103.5 95.274C104.494 95.274 105.054 94.854 105.18 94.014C105.292 93.202 105.362 91.018 105.362 87.462H102.856V85.516H105.698V84.536H104.004C103.738 83.766 103.458 83.08 103.178 82.478L102.156 82.66C102.478 83.22 102.772 83.85 103.038 84.536H100.812ZM107.644 85.04H113.062V84.102H108.022C108.19 83.654 108.344 83.192 108.498 82.716L107.56 82.506C107 84.34 106.3 85.824 105.432 86.958L106.09 87.742C106.678 86.958 107.196 86.062 107.644 85.04ZM112.53 86.902L110.206 87.756V85.838H109.282V88.092L107.854 88.61V86.972H106.958V88.932L105.866 89.338V90.248L106.958 89.856V93.692C106.958 94.756 107.378 95.302 108.246 95.302H111.508C112.082 95.302 112.502 95.19 112.768 94.98C113.076 94.728 113.286 94.014 113.398 92.852L112.53 92.572C112.46 93.468 112.334 94.014 112.138 94.196C111.97 94.336 111.704 94.42 111.34 94.42H108.54C108.078 94.42 107.854 94.112 107.854 93.51V89.534L109.282 89.016V93.3H110.206V88.68L111.62 88.176C111.62 89.898 111.592 90.892 111.536 91.158C111.48 91.438 111.34 91.592 111.088 91.592C110.92 91.592 110.71 91.578 110.486 91.578L110.738 92.446H110.92C111.76 92.446 112.25 92.166 112.362 91.62C112.474 91.074 112.53 89.506 112.53 86.902ZM120.496 84.606V93.468H114.756V94.434H127.258V93.468H121.532V84.606H126.348V83.64H115.694V84.606H120.496ZM134.776 85.53H135.532V95.414H136.554V92.152H140.726V91.186H136.554V88.82H140.642V87.84H136.554V85.53H141.258V84.536H135.21C135.434 83.962 135.658 83.346 135.882 82.702L134.874 82.478C134.09 84.844 133.068 86.762 131.836 88.218L132.55 89.072C133.39 88.064 134.132 86.888 134.776 85.53ZM130.296 87.546V95.414H131.332V86.034C131.892 85.082 132.368 84.06 132.746 82.968L131.794 82.52C131.108 84.648 130.002 86.524 128.49 88.162L128.826 89.226C129.358 88.694 129.848 88.134 130.296 87.546Z" fill="white" fill-opacity="0.6"/>
</g>
</g>
<g id="&#229;&#174;&#158;&#230;&#150;&#189;_2" opacity="0.5">
<g id="Group">
<path id="Vector" d="M255.034 22.6959C252.483 22.6959 249.949 22.664 247.398 22.7118C246.569 22.7278 246.106 22.4249 245.724 21.7393C244.512 19.6987 242.79 18.1841 240.638 17.2276C238.821 16.4145 236.923 16.0797 234.899 16.2232C233.193 16.3507 231.63 16.7971 230.132 17.5943C229.399 17.9769 229.128 18.4711 229.175 19.2842C229.223 20.3045 229.175 21.3408 229.175 22.377C229.175 23.509 229.717 24.051 230.849 24.051C232.842 24.051 234.835 24.0351 236.812 24.051C238.103 24.067 238.31 24.2583 238.326 25.5656C238.342 27.1598 238.342 28.7541 238.326 30.3324C238.31 31.6716 238.071 31.9267 236.732 31.9267C234.803 31.9107 232.858 31.9745 230.929 31.9107C229.909 31.8788 229.096 32.6441 229.159 33.6804C229.239 34.7963 229.175 35.9123 229.175 37.0283C229.175 37.4269 229.271 37.7298 229.638 38.0008C230.993 39.0052 232.555 39.3878 234.181 39.6748C235.536 39.9139 236.844 39.6907 238.167 39.5791C238.805 39.5313 239.395 39.7067 240 39.898" stroke="white" stroke-width="2" stroke-miterlimit="10" stroke-linecap="round" stroke-linejoin="round"/>
<path id="Vector_2" d="M297.123 39.882C298.159 39.4835 299.227 39.5951 300.311 39.7067C302.735 39.9617 305.03 39.4675 307.151 38.224C308.075 37.682 308.012 37.7936 308.713 37.0602C308.888 36.8689 308.841 35.5138 308.793 35.1311C308.697 34.4456 308.697 33.7601 308.426 32.9789C308.155 32.2136 307.135 31.9267 306.274 31.9267C304.281 31.9267 302.288 31.9267 300.311 31.9267C299.004 31.9267 298.829 31.6397 298.813 30.4121C298.781 28.77 298.781 27.1279 298.813 25.4859C298.829 24.2583 299.004 24.0829 300.232 24.067C302.224 24.0351 304.775 24.067 306.768 24.051C307.82 24.051 308.251 23.7481 308.506 22.7756C308.681 22.106 308.458 21.0698 308.458 19.6828C308.458 18.2957 307.597 17.7537 306.513 17.2914C302.288 15.5058 298.239 15.8087 294.428 18.4073C293.169 19.2682 292.181 20.4321 291.415 21.7393C291.017 22.4089 290.554 22.7756 289.725 22.6959C288.944 22.6162 288.131 22.68 287.334 22.68" stroke="white" stroke-width="2" stroke-miterlimit="10" stroke-linecap="round" stroke-linejoin="round"/>
<path id="Vector_3" d="M287.414 33.2021C287.86 33.2021 288.322 33.1702 288.769 33.218C289.518 33.2977 290.267 33.4253 290.762 34.0789C292.388 36.2949 294.428 38.0646 296.66 39.6429C296.852 39.7704 297.107 39.7864 297.139 40.1212C297.218 40.8864 297.617 41.5401 298 42.1778C297.776 42.672 297.442 43.0865 297.059 43.4691C295.592 44.9199 294.157 46.4026 292.675 47.8374C292.085 48.4113 292.021 48.9693 292.356 49.6867C292.723 50.4679 292.994 51.281 293.328 52.0622C293.583 52.6839 294.03 52.9709 294.763 52.955C296.884 52.9071 299.004 52.9231 301.124 52.955C302.001 52.9709 302.703 53.6724 302.703 54.5492C302.719 58.7262 302.719 62.9191 302.703 67.0961C302.703 67.9729 301.985 68.6744 301.124 68.6903C299.004 68.7222 296.884 68.7222 294.763 68.6903C293.982 68.6744 293.52 68.9454 293.296 69.7425C293.121 70.3802 292.834 70.9861 292.515 71.56C291.925 72.6281 291.973 73.0905 292.77 73.8876C294.205 75.3225 295.624 76.7573 297.075 78.1762C297.458 78.5588 297.792 78.9574 297.952 79.3081C294.301 82.959 290.698 86.562 287.063 90.1969C286.728 90.0534 286.314 89.7027 285.931 89.3201C284.48 87.8533 282.998 86.4185 281.563 84.9358C280.989 84.346 280.447 84.2981 279.713 84.617C278.932 84.9518 278.167 85.3504 277.338 85.6054C276.684 85.8127 276.429 86.291 276.445 87.0243C276.477 88.4273 276.477 92.0303 276.477 94.071C276.477 94.884 275.823 95.5377 275.01 95.5377H262.161C261.348 95.5377 260.694 94.884 260.694 94.071C260.678 92.0303 260.678 88.4273 260.694 87.0243C260.71 86.2431 260.439 85.7808 259.658 85.5576C259.02 85.3822 258.414 85.0953 257.84 84.7764C256.772 84.1865 256.31 84.2344 255.513 85.0315C254.078 86.4663 252.643 87.8852 251.224 89.336C250.841 89.7186 250.443 90.0534 250.092 90.2128C246.441 86.562 242.838 82.959 239.203 79.324C239.347 78.9893 239.697 78.5747 240.08 78.1921C241.547 76.7413 242.982 75.2587 244.464 73.8238C245.054 73.2499 245.102 72.7079 244.783 71.9745C244.448 71.1933 244.05 70.4281 243.795 69.5991C243.587 68.9454 243.109 68.6903 242.376 68.7063C240.255 68.7541 238.135 68.7382 236.015 68.7063C235.138 68.6903 234.436 67.9889 234.436 67.112C234.42 62.935 234.42 58.7421 234.436 54.5652C234.436 53.6883 235.154 52.9869 236.015 52.9709C238.135 52.939 240.255 52.939 242.376 52.9709C243.029 52.9869 243.619 52.5723 243.843 51.9665C244.098 51.2491 244.401 50.5476 244.767 49.8621C245.214 48.9853 245.102 48.5389 244.385 47.8055C242.95 46.3707 241.531 44.9358 240.08 43.5169C239.697 43.1343 239.363 42.7358 239.155 42.2894C239.41 41.6517 239.841 41.1096 239.937 40.4241C239.968 40.1371 240.096 39.882 240.399 39.6907C241.499 39.0211 242.503 38.2081 243.428 37.3153C243.97 36.8051 244.608 36.4225 245.325 36.1993" stroke="white" stroke-width="2" stroke-miterlimit="10" stroke-linecap="round" stroke-linejoin="round"/>
<path id="Vector_4" d="M252.802 51.5042C251.24 53.9753 250.427 56.6855 250.252 59.619C249.965 64.3061 251.224 68.499 254.157 72.1818C254.173 72.2136 254.205 72.2296 254.237 72.2615C255.162 73.1064 256.278 73.6485 256.947 74.9239C257.553 76.0718 259.052 76.6776 260.295 77.2515C262.527 78.3037 264.855 78.9733 267.358 79.1327C271.646 79.4038 275.505 78.2718 279.044 75.9123C279.825 75.3862 280.606 74.8123 280.813 73.776C280.861 73.5528 280.989 73.2818 281.276 73.218C282.679 72.947 283.285 71.7991 283.986 70.7469C285.325 68.7541 286.17 66.57 286.601 64.2264C287.254 60.6871 286.935 57.2276 285.58 53.8796C285.198 52.9231 284.783 51.9665 283.986 51.2491" stroke="white" stroke-width="2" stroke-miterlimit="10" stroke-linecap="round" stroke-linejoin="round"/>
<path id="Vector_5" d="M271.184 19.5233C270.722 19.3161 270.323 19.0132 269.988 18.6465C268.665 17.1957 266.258 17.116 264.664 18.4074C264.265 18.7262 263.962 19.1567 263.532 19.4277C263.149 19.6668 263.309 19.9697 263.309 20.2408C263.293 26.1555 263.293 32.0702 263.309 37.9849C263.309 38.7023 263.133 39.1646 262.527 39.611C261.858 40.0893 261.156 40.6154 260.678 41.3328" stroke="white" stroke-width="2" stroke-miterlimit="10" stroke-linecap="round" stroke-linejoin="round"/>
<path id="Vector_6" d="M281.053 73.2977C280.606 72.5644 280.415 71.7832 280.399 70.9063C280.383 69.7904 280.622 68.6425 280.096 67.5584C280.048 67.4787 280.048 67.3352 280.096 67.2395C280.542 66.3946 280.399 65.5018 280.399 64.609C280.415 61.4205 280.415 58.2479 280.399 55.0594C280.399 54.4855 280.479 54.0072 280.957 53.6246C281.929 52.8434 282.567 51.6955 283.811 51.2013C284.209 51.0419 284.241 50.3244 284.624 49.9578C285.246 49.3679 285.835 48.7302 286.457 48.1403C286.824 47.8055 286.951 47.4388 286.935 46.9446C286.904 45.3025 286.919 43.6604 286.919 42.0183C286.919 41.7473 286.967 41.4763 286.84 41.2212C286.425 40.4081 286.537 39.5791 286.76 38.7501C287.079 37.5704 286.888 36.3587 286.904 35.163C286.919 34.4934 287.095 33.8876 287.191 33.2499C287.286 32.66 286.888 32.0702 286.888 31.4324C286.935 29.1527 286.904 26.8729 286.904 24.5931C286.904 24.0829 286.872 23.5568 287.143 23.0785C287.159 23.0626 287.143 23.0307 287.143 22.9988C286.999 21.7872 286.999 20.5118 286.393 19.4436C285.915 18.5668 285.118 17.8334 284.002 17.6102C282.535 17.3073 281.276 17.674 280.176 18.6465C279.889 18.9016 279.666 19.2045 279.299 19.3798C279.076 19.4914 279.044 19.7465 279.044 20.0016C279.06 26.1076 279.06 32.1977 279.044 38.3037C279.044 38.7342 279.187 39.0211 279.522 39.2603C279.809 39.4675 280.08 39.7067 280.319 39.9777C281.356 41.0777 282.982 41.4444 284.544 40.7589C285.134 40.5038 285.692 40.1371 286.377 40.1212" stroke="white" stroke-width="2" stroke-miterlimit="10" stroke-linecap="round" stroke-linejoin="round"/>
<path id="Vector_7" d="M279.06 19.5233C278.581 19.3001 278.231 18.9335 277.864 18.5668C276.365 17.0841 273.671 17.1798 272.38 18.6465C272.3 18.7262 272.236 18.8378 272.141 18.8856C271.216 19.3001 271.168 20.0494 271.168 20.9582C271.2 26.7453 271.184 32.5166 271.184 38.3037C271.184 38.7182 271.184 39.0211 270.722 39.2922C270.18 39.611 269.845 40.2168 269.271 40.5357C267.613 41.4604 265.811 41.3009 264.584 39.9777C264.217 39.5791 263.691 39.3878 263.308 39.0371" stroke="white" stroke-width="2" stroke-miterlimit="10" stroke-linecap="round" stroke-linejoin="round"/>
<path id="Vector_8" d="M254.795 27.957C254.237 27.8773 253.775 27.5903 253.281 27.3352C250.714 26.012 248.004 26.7932 246.68 29.2324C246.218 30.0933 246.202 31.0658 246.218 32.0223C246.234 33.2659 246.027 34.4616 245.564 35.5935C245.421 35.9442 245.389 36.2152 245.628 36.566C246.059 37.1718 246.202 37.8733 246.202 38.6226C246.202 40.1849 246.154 41.7633 246.298 43.3097C246.441 44.8561 247.27 46.0837 248.498 47.0562C249.821 48.1084 251.065 49.2722 252.324 50.3882C252.468 50.5158 252.563 50.6911 252.643 50.8665C252.818 51.2651 253.073 51.4723 253.52 51.5999C254.253 51.8231 254.636 52.5405 255.273 52.939C256.517 53.7202 256.788 54.8521 256.74 56.271C256.644 59.3958 256.74 62.5365 256.676 65.6612C256.66 66.4105 257.25 67.0801 256.931 67.7975C256.613 68.515 256.74 69.2324 256.708 69.9498C256.692 70.2686 256.692 70.5875 256.708 70.9064C256.772 71.7832 256.517 72.5644 256.071 73.2977" stroke="white" stroke-width="2" stroke-miterlimit="10" stroke-linecap="round" stroke-linejoin="round"/>
<path id="Vector_9" d="M257.187 67.4149C262.272 67.4149 267.374 67.4149 272.46 67.4149" stroke="white" stroke-width="2" stroke-miterlimit="10" stroke-linecap="round" stroke-linejoin="round"/>
<path id="Vector_10" d="M263.308 19.5233C262.846 19.348 262.543 18.9813 262.193 18.6465C260.136 16.6855 256.644 17.2435 255.704 20.0973C255.337 21.2132 255.066 22.393 255.305 23.6684C255.56 25.0076 255.64 26.4105 255.018 27.7178C254.939 27.8932 254.875 28.0048 254.939 28.1961C255.576 29.8541 255.401 31.5759 255.417 33.2818C255.417 33.7601 255.481 34.2543 255.401 34.7166C255.114 36.4544 255.704 37.7776 257.155 38.782C257.92 39.324 258.51 40.169 259.339 40.5516C260.55 41.1256 261.108 42.3053 262.081 43.0865C263.308 44.059 264.377 45.2547 265.62 46.2272C266.242 46.7214 266.369 47.2475 266.322 47.9171C266.306 48.1084 266.322 48.2838 266.322 48.4751" stroke="white" stroke-width="2" stroke-miterlimit="10" stroke-linecap="round" stroke-linejoin="round"/>
<path id="Vector_11" d="M279.06 38.9255C278.629 39.2762 278.167 39.5791 277.8 39.9617C276.286 41.5401 273.91 41.3806 272.38 39.9617C272.029 39.627 271.726 39.2284 271.264 39.0052" stroke="white" stroke-width="2" stroke-miterlimit="10" stroke-linecap="round" stroke-linejoin="round"/>
<path id="Vector_12" d="M239.044 42.1937C238.406 42.1937 237.768 42.1937 237.131 42.1937" stroke="white" stroke-width="2" stroke-miterlimit="10" stroke-linecap="round" stroke-linejoin="round"/>
<path id="Vector_13" d="M298.079 42.1937C298.717 42.1937 299.355 42.1937 299.992 42.1937" stroke="white" stroke-width="2" stroke-miterlimit="10" stroke-linecap="round" stroke-linejoin="round"/>
<path id="Vector_14" d="M239.044 79.4197C238.406 79.4197 237.768 79.4197 237.131 79.4197" stroke="white" stroke-width="2" stroke-miterlimit="10" stroke-linecap="round" stroke-linejoin="round"/>
<path id="Vector_15" d="M298.079 79.4197C298.717 79.4197 299.355 79.4197 299.992 79.4197" stroke="white" stroke-width="2" stroke-miterlimit="10" stroke-linecap="round" stroke-linejoin="round"/>
<path id="Vector_16" d="M249.949 90.3245C249.949 90.9622 249.949 91.5999 249.949 92.2375" stroke="white" stroke-width="2" stroke-miterlimit="10" stroke-linecap="round" stroke-linejoin="round"/>
<path id="Vector_17" d="M287.175 90.3245C287.175 90.9622 287.175 91.5999 287.175 92.2375" stroke="white" stroke-width="2" stroke-miterlimit="10" stroke-linecap="round" stroke-linejoin="round"/>
<path id="Vector_18" d="M246.84 48.4751C246.25 48.5229 245.676 48.5867 245.086 48.6345" stroke="white" stroke-width="2" stroke-miterlimit="10" stroke-linecap="round" stroke-linejoin="round"/>
<path id="Vector_19" d="M246.84 73.1383C246.25 73.0905 245.676 73.0267 245.086 72.9789" stroke="white" stroke-width="2" stroke-miterlimit="10" stroke-linecap="round" stroke-linejoin="round"/>
<path id="Vector_20" d="M292.037 72.9789C291.447 73.0267 290.873 73.0905 290.283 73.1383" stroke="white" stroke-width="2" stroke-miterlimit="10" stroke-linecap="round" stroke-linejoin="round"/>
<path id="Vector_21" d="M292.037 48.6345C291.447 48.5867 290.873 48.5229 290.283 48.4751" stroke="white" stroke-width="2" stroke-miterlimit="10" stroke-linecap="round" stroke-linejoin="round"/>
<path id="Vector_22" d="M280.893 82.5285C280.845 83.1184 280.782 83.6923 280.734 84.2822" stroke="white" stroke-width="2" stroke-miterlimit="10" stroke-linecap="round" stroke-linejoin="round"/>
<path id="Vector_23" d="M268.012 46.7214C267.454 46.7692 266.896 46.6258 266.338 46.8011" stroke="white" stroke-width="2" stroke-miterlimit="10" stroke-linecap="round" stroke-linejoin="round"/>
</g>
</g>
</g>
<defs>
<linearGradient id="paint0_linear_683_18047" x1="171.5" y1="2.60835e-06" x2="186.136" y2="106.464" gradientUnits="userSpaceOnUse">
<stop stop-color="#28ABF0"/>
<stop offset="1" stop-color="#138DFC"/>
</linearGradient>
</defs>
</svg>
