<svg width="343" height="114" viewBox="0 0 343 114" fill="none" xmlns="http://www.w3.org/2000/svg">
<g id="&#232;&#189;&#175;&#228;&#187;&#182;">
<mask id="mask0_683_18600" style="mask-type:alpha" maskUnits="userSpaceOnUse" x="0" y="0" width="343" height="114">
<g id="Rectangle 681" style="mix-blend-mode:screen">
<rect width="343" height="114" rx="8" fill="#C4C4C4"/>
</g>
</mask>
<g mask="url(#mask0_683_18600)">
<g id="Group 652">
<g id="&#229;&#143;&#145;&#229;&#141;&#149;&#229;&#141;&#161;&#231;&#137;&#135;">
<path d="M0 8C0 3.58172 3.58172 0 8 0H335C339.418 0 343 3.58172 343 8V106C343 110.418 339.418 114 335 114H7.99999C3.58172 114 0 110.418 0 106V8Z" fill="url(#paint0_linear_683_18600)"/>
<g id="Frame 1219">
<g id="Frame 1226">
<path id="&#229;&#136;&#151;&#232;&#161;&#168;&#230;&#160;&#135;&#233;&#162;&#152; copy 3" d="M22.132 23.776C21.46 24.004 20.728 24.22 19.948 24.424V22.264H22.9C22.996 23.176 23.128 23.968 23.296 24.652C23.416 25.12 23.548 25.564 23.692 25.972C22.816 26.8 21.796 27.436 20.62 27.868L21.088 28.612C22.18 28.18 23.164 27.58 24.028 26.812C24.22 27.244 24.448 27.628 24.688 27.952C25.24 28.672 25.756 29.032 26.248 29.032C26.8 29.032 27.22 28.18 27.508 26.476L26.752 26.08C26.56 27.424 26.356 28.096 26.116 28.108C25.888 28.108 25.576 27.808 25.192 27.232C25 26.956 24.832 26.608 24.664 26.2C25.42 25.396 26.068 24.436 26.62 23.308L25.876 22.912C25.444 23.8 24.928 24.592 24.352 25.288C24.268 25.024 24.184 24.748 24.112 24.436C23.968 23.848 23.86 23.128 23.776 22.264H27.412V21.436H23.704C23.632 20.5 23.596 19.432 23.584 18.22H22.72C22.72 19.396 22.756 20.464 22.828 21.436H19.948V19.636C20.572 19.468 21.172 19.288 21.724 19.096L21.436 18.28C20.116 18.796 18.604 19.144 16.9 19.336L17.08 20.164C17.764 20.068 18.424 19.96 19.06 19.828V21.436H16.588V22.264H19.06V24.628C18.28 24.796 17.452 24.94 16.576 25.084L16.696 25.96C17.512 25.828 18.292 25.672 19.06 25.504V27.784C19.06 28.108 18.892 28.276 18.556 28.276C18.16 28.276 17.752 28.252 17.332 28.216L17.512 29.044H18.844C19.576 29.044 19.948 28.696 19.948 28V25.3C20.716 25.096 21.436 24.88 22.132 24.652V23.776ZM24.904 18.352L24.328 18.904C25.24 19.54 25.948 20.14 26.476 20.692L27.1 20.068C26.5 19.492 25.768 18.928 24.904 18.352ZM28.696 18.676V19.456H32.236V20.524H29.44V23.548H32.596C32.404 23.884 32.2 24.244 31.984 24.616H28.54V25.408H31.504C31.24 25.816 30.976 26.236 30.688 26.656C31.684 26.884 32.68 27.148 33.676 27.448C32.596 27.868 30.976 28.204 28.84 28.456L29.164 29.224C31.756 28.876 33.628 28.396 34.768 27.784C36.1 28.216 37.432 28.708 38.752 29.272L39.292 28.564C38.02 28.06 36.772 27.628 35.548 27.256C36.184 26.74 36.628 26.128 36.868 25.408H39.448V24.616H32.956C33.148 24.28 33.352 23.932 33.568 23.548H38.56V20.524H35.764V19.456H39.304V18.676H28.696ZM34.624 26.98C33.7 26.716 32.8 26.488 31.912 26.296C32.092 26.032 32.284 25.732 32.488 25.408H35.992C35.752 26.032 35.296 26.56 34.624 26.98ZM34.936 20.524H33.064V19.456H34.936V20.524ZM37.732 22.804H35.764V21.28H37.732V22.804ZM34.936 22.804H33.064V21.28H34.936V22.804ZM32.236 22.804H30.268V21.28H32.236V22.804ZM41.392 21.88H44.368C43.528 24.556 42.244 26.656 40.492 28.192L40.936 28.984C42.304 27.868 43.432 26.368 44.308 24.472C44.704 25.312 45.364 26.092 46.3 26.812C45.4 27.4 44.284 27.94 42.94 28.432L43.396 29.236C44.848 28.672 46.072 28.048 47.056 27.352C48.064 28.012 49.336 28.624 50.872 29.188L51.316 28.384C49.924 27.904 48.736 27.376 47.764 26.8C48.748 25.96 49.396 25.024 49.72 23.992V23.248H44.812C44.98 22.816 45.124 22.36 45.268 21.88H51.112V21.052H45.496C45.712 20.164 45.904 19.228 46.06 18.22L45.184 18.112C45.04 19.144 44.848 20.116 44.608 21.052H42.508L43.192 18.688L42.34 18.544L41.392 21.88ZM44.956 24.04H48.844C48.508 24.856 47.896 25.612 47.008 26.308C46.048 25.612 45.364 24.856 44.956 24.04ZM48.076 18.208L47.5 18.772C48.4 19.492 49.108 20.164 49.612 20.8L50.224 20.188C49.648 19.528 48.94 18.868 48.076 18.208ZM58.348 21.352V22.816H55.528C56.104 22.132 56.608 21.388 57.04 20.596H63.28V19.756H57.46C57.676 19.288 57.868 18.784 58.036 18.256L57.16 18.148C56.98 18.7 56.764 19.228 56.5 19.756H52.84V20.596H56.044C55.168 22.06 53.968 23.344 52.444 24.472L52.996 25.192C53.704 24.652 54.352 24.076 54.952 23.464V28.06H55.78V23.62H58.348V29.2H59.176V23.62H61.732V26.668C61.732 27.016 61.54 27.196 61.156 27.196L60.088 27.172L60.304 27.976H61.432C62.176 27.976 62.56 27.592 62.56 26.848V22.816H59.176V21.352H58.348Z" fill="white" fill-opacity="0.6"/>
<path id="&#229;&#136;&#151;&#232;&#161;&#168;&#230;&#160;&#135;&#233;&#162;&#152;" d="M22.656 43.012V46.574H20.238C20.862 45.066 21.434 43.376 21.954 41.478H28.584V39.086H22.578C22.812 38.098 23.046 37.084 23.254 36.044L20.888 35.68C20.654 36.876 20.42 37.994 20.16 39.086H17.352V41.478H19.536C18.964 43.532 18.34 45.248 17.664 46.6L18.184 48.784H22.656V52.138C20.966 52.398 19.172 52.658 17.3 52.866L17.612 55.284C19.354 55.076 21.044 54.816 22.656 54.556V59.678H25.074V54.088C26.27 53.828 27.414 53.568 28.532 53.282V50.968C27.44 51.228 26.27 51.488 25.074 51.722V48.784H28.064V46.574H25.074V43.012H22.656ZM30.794 35.368C30.326 39.632 29.312 42.934 27.7 45.326L29.728 46.756C30.664 45.508 31.418 43.896 32.042 41.868H37.97C37.502 43.844 36.93 45.56 36.28 47.068L38.75 47.744C39.504 45.534 40.128 43.324 40.596 41.088V39.502H32.64C32.874 38.358 33.082 37.11 33.238 35.758L30.794 35.368ZM32.926 43.428C32.9 46.73 32.562 49.434 31.938 51.514C31.158 54.01 29.546 56.09 27.05 57.806L28.688 59.808C31.574 57.832 33.446 55.362 34.278 52.346C35.5 55.206 37.216 57.676 39.452 59.704L41.194 57.676C38.282 55.388 36.228 52.294 35.032 48.394C35.188 46.886 35.292 45.248 35.292 43.428H32.926ZM48.526 35.472C47.278 39.476 45.354 42.986 42.754 46.002L43.56 48.628C44.366 47.77 45.146 46.886 45.874 45.95V59.678H48.292V42.362C49.332 40.542 50.19 38.592 50.84 36.538L48.526 35.472ZM52.894 37.344C52.374 40.672 51.334 43.506 49.826 45.82L51.412 47.874C52.348 46.522 53.128 45.04 53.778 43.402H57.704V48.992H50.32V51.384H57.704V59.574H60.174V51.384H66.882V48.992H60.174V43.402H65.92V40.984H60.174V35.784H57.704V40.984H54.584C54.87 39.944 55.104 38.826 55.312 37.656L52.894 37.344ZM71.744 39.58V50.734H79.778V52.788H69.378V55.128H79.778V59.782H82.222V55.128H92.622V52.788H82.222V50.734H90.256V39.58H85.524C86.252 38.592 86.902 37.5 87.474 36.304L85.082 35.446C84.484 36.902 83.782 38.28 82.95 39.58H77.698L79.258 38.8C78.478 37.604 77.646 36.538 76.762 35.576L74.708 36.564C75.514 37.448 76.268 38.462 76.996 39.58H71.744ZM87.864 48.55H82.222V46.158H87.864V48.55ZM79.778 48.55H74.136V46.158H79.778V48.55ZM74.136 44.078V41.738H79.778V44.078H74.136ZM82.222 41.738H87.864V44.078H82.222V41.738Z" fill="white"/>
</g>
<path id="&#229;&#136;&#151;&#232;&#161;&#168;&#230;&#160;&#135;&#233;&#162;&#152; copy 2" d="M22.594 83.08V87.126H28.404V83.08H22.594ZM27.424 86.216H23.588V83.976H27.424V86.216ZM22.048 88.428V89.352H24.918V91.144H22.37V92.054H24.918V93.944H21.488V94.896H29.342V93.944H25.954V92.054H28.572V91.144H25.954V89.352H29.006V88.428H22.048ZM16.812 86.398V87.364H18.758C18.31 88.96 17.554 90.374 16.49 91.62L16.924 92.74C17.722 91.634 18.366 90.402 18.856 89.03V95.344H19.822V89.03C20.214 89.548 20.704 90.248 21.264 91.116L21.824 90.276C21.152 89.478 20.48 88.75 19.822 88.106V87.364H21.628V86.398H19.822V84.2C20.522 84.06 21.194 83.906 21.824 83.724L21.474 82.772C20.13 83.192 18.576 83.486 16.826 83.654L17.022 84.606C17.652 84.536 18.268 84.452 18.856 84.368V86.398H16.812ZM37.532 82.506L36.51 82.674C36.72 82.996 36.916 83.346 37.098 83.724H31.834V88.246C31.806 90.99 31.386 93.146 30.588 94.7L31.344 95.372C32.296 93.58 32.786 91.214 32.842 88.246V84.648H43.174V83.724H38.106C37.924 83.276 37.728 82.87 37.532 82.506ZM36.314 87.308L35.712 87.896C36.818 88.456 37.742 89.002 38.47 89.506H33.486V90.444H37.602V93.944C37.602 94.336 37.406 94.546 37.028 94.546C36.412 94.546 35.768 94.518 35.096 94.476L35.306 95.428H37.364C38.19 95.428 38.61 95.008 38.61 94.182V90.444H41.83C41.34 91.228 40.808 91.9 40.22 92.46L40.976 93.062C41.69 92.306 42.334 91.382 42.908 90.29V89.506H39.352L39.562 89.296C39.366 89.142 39.156 88.988 38.932 88.848C39.94 88.19 40.878 87.406 41.732 86.496V85.768H34.298V86.636H40.472C39.772 87.28 39.002 87.854 38.162 88.344C37.602 87.994 36.986 87.644 36.314 87.308ZM49.712 83.71V84.564H52.666V85.74H49.11V86.608H57.174V85.74H53.632V84.564H56.572V83.71H53.632V82.632H52.666V83.71H49.712ZM50.034 87.546V90.836H51.742C51.196 91.494 50.202 92.096 48.774 92.628L49.278 93.468C49.782 93.244 50.258 92.992 50.692 92.74V94.098C50.692 94.266 50.58 94.406 50.356 94.504L50.65 95.302C51.714 95.008 52.778 94.63 53.814 94.154L53.632 93.3C52.96 93.608 52.288 93.888 51.616 94.112V92.082C52.078 91.704 52.442 91.284 52.722 90.836H52.904C53.744 93.062 55.06 94.574 56.88 95.358L57.426 94.504C56.656 94.196 55.984 93.776 55.396 93.216C55.984 92.782 56.544 92.278 57.104 91.69L56.418 91.172C55.97 91.676 55.452 92.152 54.85 92.628C54.43 92.124 54.066 91.522 53.786 90.836H56.194V87.546H50.034ZM55.256 90.024H50.972V88.358H55.256V90.024ZM48.648 82.702C48.228 83.402 47.766 84.046 47.262 84.606C46.87 83.99 46.38 83.374 45.792 82.772L44.994 83.388C45.624 83.962 46.142 84.606 46.562 85.306C45.974 85.866 45.302 86.342 44.574 86.72L45.12 87.588C45.82 87.14 46.45 86.678 46.996 86.216C47.024 86.272 47.052 86.328 47.08 86.412C47.22 86.832 47.346 87.322 47.458 87.882C46.758 89.114 45.792 90.15 44.56 91.018L45.134 91.872C46.086 91.172 46.912 90.29 47.612 89.254C47.64 89.702 47.668 90.192 47.668 90.738C47.668 92.614 47.514 93.734 47.234 94.098C47.094 94.266 46.842 94.35 46.45 94.35C46.044 94.35 45.624 94.322 45.176 94.294L45.47 95.232C45.778 95.232 46.17 95.246 46.674 95.246C47.178 95.246 47.584 95.12 47.878 94.882C48.382 94.406 48.634 93.048 48.634 90.794C48.592 88.722 48.368 87.112 47.962 85.978C47.892 85.81 47.822 85.656 47.752 85.502C48.34 84.9 48.914 84.144 49.474 83.22L48.648 82.702ZM69.438 95.288C70.376 95.288 70.852 94.812 70.852 93.874V83.472H66.456V84.438H69.858V93.594C69.858 94.112 69.648 94.378 69.228 94.378L67.856 94.35L68.108 95.288H69.438ZM64.468 82.562L63.698 83.052C64.328 83.864 64.832 84.62 65.196 85.306L65.994 84.746C65.63 84.116 65.126 83.388 64.468 82.562ZM61.822 82.478C61.122 84.676 60.016 86.622 58.476 88.33L58.798 89.352C59.344 88.792 59.848 88.19 60.31 87.574V95.428H61.318V86.048C61.892 85.054 62.368 84.004 62.732 82.898L61.822 82.478ZM63.04 84.942V95.386H64.02V84.942H63.04ZM74.576 82.912L73.806 83.458C74.562 84.242 75.192 84.984 75.682 85.684L76.466 85.138C76.018 84.494 75.388 83.752 74.576 82.912ZM79.504 88.82L78.692 89.324C79.644 90.416 80.386 91.424 80.946 92.32L81.828 91.704C81.282 90.892 80.512 89.926 79.504 88.82ZM77.754 82.562V84.228C77.74 84.844 77.712 85.432 77.67 86.02H73.204V87H77.558C77.376 88.4 77.068 89.618 76.634 90.654C75.906 92.236 74.59 93.496 72.714 94.448L73.288 95.344C75.192 94.406 76.55 93.104 77.376 91.438C77.95 90.234 78.342 88.764 78.566 87H83.41C83.41 88.792 83.354 90.458 83.242 91.984C83.13 93.496 82.668 94.294 81.884 94.35C81.296 94.35 80.652 94.322 79.938 94.266L80.204 95.246C80.68 95.274 81.254 95.302 81.94 95.302C82.878 95.302 83.536 94.756 83.9 93.664C84.25 92.572 84.432 90.024 84.432 86.02H78.664C78.706 85.446 78.734 84.844 78.748 84.228V82.562H77.754ZM94.344 85.6H97.032C97.004 87.616 96.584 89.352 95.786 90.794C95.058 89.59 94.456 88.162 94.008 86.538C94.12 86.244 94.232 85.936 94.344 85.6ZM97.998 85.6H99.09V84.634H94.624C94.764 84.046 94.904 83.402 95.016 82.716L94.036 82.548C93.672 84.998 92.986 86.944 91.964 88.372L92.58 89.156C92.902 88.736 93.196 88.26 93.476 87.728C93.938 89.226 94.526 90.542 95.226 91.676C94.316 92.908 93.07 93.86 91.488 94.56L92.118 95.386C93.63 94.672 94.862 93.72 95.786 92.53C96.668 93.762 97.732 94.728 98.964 95.428L99.538 94.588C98.306 93.888 97.256 92.922 96.374 91.69C97.396 90.052 97.942 88.022 97.998 85.6ZM88.478 93.272V88.764H91.614V83.556H86.798V84.522H90.634V87.84H87.498V93.062C87.498 93.426 87.358 93.65 87.106 93.762L87.4 94.63C89.192 94.042 90.802 93.384 92.258 92.684L92.104 91.76C90.872 92.376 89.654 92.88 88.478 93.272ZM110.696 85.544L110.024 86.188C111.144 86.944 112.026 87.672 112.67 88.344L113.37 87.644C112.642 86.944 111.76 86.244 110.696 85.544ZM107.14 82.394L106.048 82.562C106.244 82.926 106.426 83.346 106.594 83.794H100.98V84.774H104.858V88.554H105.866V84.774H108.148V88.554H109.156V84.774H113.02V83.794H107.616C107.462 83.276 107.308 82.814 107.14 82.394ZM103.318 85.586C102.59 86.342 101.708 87 100.644 87.56L101.26 88.372C102.366 87.756 103.304 87.042 104.06 86.244L103.318 85.586ZM101.932 89.296V90.192H103.038C103.822 91.256 104.83 92.166 106.076 92.95C104.536 93.608 102.772 94.084 100.756 94.378L101.218 95.33C103.458 94.952 105.432 94.35 107.112 93.524C108.722 94.336 110.682 94.938 112.992 95.33L113.454 94.406C111.396 94.126 109.604 93.65 108.092 92.992C109.436 92.194 110.57 91.214 111.494 90.066V89.296H101.932ZM104.158 90.192H110.136C109.268 91.074 108.246 91.844 107.042 92.488C105.88 91.858 104.914 91.088 104.158 90.192ZM114.686 85.894V86.86H116.478V94.854H126.824V93.832H117.5V86.86H120.356V91.27H125.186V86.86H127.3V85.894H125.186V82.604H124.192V85.894H121.35V82.604H120.356V85.894H117.5V82.73H116.478V85.894H114.686ZM121.35 86.86H124.192V90.29H121.35V86.86ZM130.198 83.108V88.666H132.816C131.892 89.66 130.45 90.472 128.504 91.116L129.036 91.998C131.276 91.116 132.886 90.01 133.866 88.666H136.12C136.47 89.184 136.932 89.688 137.52 90.164H136.694V95.428H137.702V90.318C138.57 91.004 139.69 91.606 141.048 92.11L141.482 91.228C139.536 90.598 138.094 89.744 137.17 88.666H139.858V83.108H130.198ZM138.892 87.77H135.49V86.286H138.892V87.77ZM134.51 87.77H131.164V86.286H134.51V87.77ZM131.164 85.446V84.004H134.51V85.446H131.164ZM135.49 84.004H138.892V85.446H135.49V84.004ZM132.522 90.15C132.508 91.172 132.34 92.012 132.032 92.684C131.612 93.468 130.758 94.112 129.498 94.63L130.17 95.442C131.654 94.798 132.62 93.972 133.04 92.964C133.362 92.194 133.53 91.256 133.53 90.15H132.522ZM142.756 83.472V84.438H148.328C148.174 85.152 147.95 85.838 147.642 86.482H143.736V95.316H144.758V87.448H146.886V94.896H147.866V87.448H150.106V94.896H151.086V87.448H153.438V93.622C153.438 94.084 153.242 94.322 152.85 94.322L151.632 94.28L151.912 95.302H153.2C154.026 95.302 154.446 94.812 154.446 93.846V86.482H148.832C149.126 85.838 149.35 85.152 149.518 84.438H155.244V83.472H142.756ZM167.214 87.98H159.276C160.522 87.294 161.53 86.37 162.286 85.194H164.05C164.75 86.174 165.8 87.112 167.214 87.98ZM165.086 85.194H168.866V84.228H162.818C163.042 83.724 163.252 83.192 163.42 82.604L162.412 82.52C162.244 83.122 162.006 83.696 161.726 84.228H157.092V85.194H161.124C160.088 86.552 158.562 87.49 156.56 88.008L157.078 88.862C157.582 88.722 158.072 88.54 158.534 88.344V95.19H159.542V94.462H166.584V95.19H167.592V88.204C167.97 88.428 168.376 88.638 168.824 88.862L169.468 88.05C167.438 87.21 165.982 86.258 165.086 85.194ZM159.542 93.538V91.648H162.636V93.538H159.542ZM163.616 93.538V91.648H166.584V93.538H163.616ZM159.542 90.752V88.904H162.636V90.752H159.542ZM163.616 88.904H166.584V90.752H163.616V88.904ZM183.048 90.038L180.528 90.36V82.562H179.492V90.5L170.868 91.634L171.022 92.6L179.492 91.494V95.386H180.528V91.368L183.202 91.018L183.048 90.038ZM174.186 83.192L173.486 83.878C175.054 84.998 176.286 86.034 177.182 87.014L177.924 86.272C176.916 85.25 175.67 84.228 174.186 83.192ZM172.744 86.118L172.03 86.804C173.57 87.896 174.802 88.918 175.698 89.87L176.454 89.1C175.446 88.106 174.214 87.112 172.744 86.118Z" fill="white" fill-opacity="0.6"/>
</g>
</g>
<g id="&#232;&#189;&#175;&#228;&#187;&#182;_2" opacity="0.6">
<g id="Group">
<path id="Vector" d="M292.106 65.9219C291.606 66.1562 291.09 66.2344 290.544 66.2344C277.887 66.2187 265.231 66.2344 252.575 66.2344C252.215 66.2344 251.84 66.2656 251.481 66.3125C250.215 66.4531 249.684 67.0469 249.684 68.3437C249.684 71.625 249.684 74.8906 249.684 78.1719C249.684 78.9844 249.684 79.7812 249.684 80.5937C249.684 81.9062 250.387 82.625 251.715 82.625C264.497 82.625 277.294 82.625 290.075 82.6094C290.856 82.6094 291.637 83 292.325 82.8594C293.059 82.7187 293.778 82.625 294.528 82.625C298.2 82.625 301.856 82.625 305.528 82.625C306.84 82.625 307.544 81.9219 307.559 80.5937C307.559 76.6406 307.512 72.6875 307.59 68.75C307.622 67.0469 306.606 66.25 305.075 66.25C303.184 66.2656 301.278 66.25 299.387 66.25C297.465 66.25 295.544 66.25 293.622 66.25C293.122 66.25 292.653 66.2031 292.215 65.9375" stroke="white" stroke-width="2" stroke-miterlimit="10" stroke-linecap="round" stroke-linejoin="round"/>
<path id="Vector_2" d="M297.481 43.3125C296.075 43.3125 294.637 43.4844 293.278 43.25C292.309 43.0781 291.45 43.3125 290.544 43.3125C277.778 43.3125 265.028 43.3125 252.262 43.3125C251.903 43.3125 251.528 43.3281 251.169 43.3906C250.247 43.5781 249.7 44.2187 249.684 45.1719C249.669 49.4375 249.669 53.6875 249.684 57.9531C249.684 58.8438 250.497 59.625 251.387 59.6719C251.512 59.6719 251.653 59.6719 251.778 59.6719C264.7 59.6719 277.606 59.6406 290.528 59.7188C291.825 59.7344 293.122 59.6563 294.434 59.6563C298.122 59.6719 301.809 59.6563 305.512 59.6563C306.809 59.6563 307.528 58.9375 307.544 57.625C307.544 53.5938 307.512 49.5625 307.559 45.5469C307.575 44.2812 306.669 43.25 305.278 43.2812C304.137 43.2969 302.997 43.2812 301.84 43.2812" stroke="white" stroke-width="2" stroke-miterlimit="10" stroke-linecap="round" stroke-linejoin="round"/>
<path id="Vector_3" d="M292.106 42.9219C292.106 41.3594 292.106 39.7969 292.106 38.25C292.106 38.125 292.137 37.9844 292.106 37.8594C291.731 36.2969 292.2 34.75 292.122 33.1875C292.044 31.6563 292.106 30.125 292.106 28.5938C292.106 25.9844 290.122 24 287.512 24C284.184 24 280.856 24 277.528 24C263.278 24 249.044 24 234.794 24C232.247 24 230.075 25.7812 230.044 28.7656C230.012 30.7813 229.95 32.8438 230.075 34.8906C230.137 35.8906 230.09 36.8594 230.059 37.8594C229.997 39.625 230.044 41.3906 230.044 43.1563" stroke="white" stroke-width="2" stroke-miterlimit="10" stroke-linecap="round" stroke-linejoin="round"/>
<path id="Vector_4" d="M291.715 36.2969C271.294 36.2969 250.856 36.2969 230.434 36.2969" stroke="white" stroke-width="2" stroke-miterlimit="10" stroke-linecap="round" stroke-linejoin="round"/>
<path id="Vector_5" d="M230.122 47.3594C229.95 59.7812 230.09 72.2031 230.043 84.625C230.028 87.4531 231.731 89.1562 234.106 89.6094C234.325 89.6562 234.575 89.6094 234.809 89.6094C237.403 89.6094 240.012 89.6094 242.606 89.6094" stroke="white" stroke-width="2" stroke-miterlimit="10" stroke-linecap="round" stroke-linejoin="round"/>
<path id="Vector_6" d="M292.184 83.0625C292.044 83.7031 292.075 84.3594 292.122 85.0156C292.278 87.1719 290.372 89.6094 287.512 89.6094C280.028 89.6094 272.544 89.6094 265.059 89.6094C259.028 89.6094 252.997 89.6094 246.965 89.6094" stroke="white" stroke-width="2" stroke-miterlimit="10" stroke-linecap="round" stroke-linejoin="round"/>
<path id="Vector_7" d="M278.7 30.1406C270.325 30.3125 261.965 30.1719 253.59 30.2187C252.184 30.2187 250.778 30.2812 249.387 30.1406" stroke="white" stroke-width="2" stroke-miterlimit="10" stroke-linecap="round" stroke-linejoin="round"/>
<path id="Vector_8" d="M296.559 54.375C292.09 54.375 287.622 54.375 283.153 54.375C282.294 54.375 281.434 54.375 280.575 54.375" stroke="white" stroke-width="2" stroke-miterlimit="10" stroke-linecap="round" stroke-linejoin="round"/>
<path id="Vector_9" d="M280.106 48.7656C275.372 48.7656 270.653 48.7656 265.919 48.7656C265.653 48.7656 265.403 48.7344 265.137 48.7344" stroke="white" stroke-width="2" stroke-miterlimit="10" stroke-linecap="round" stroke-linejoin="round"/>
<path id="Vector_10" d="M266.997 70.0156C266.715 70.1406 266.403 69.9531 266.169 70.1094C265.106 73.0469 264.044 75.9375 262.95 78.9219C262.731 78.9687 262.45 78.9687 262.153 78.9062" stroke="white" stroke-width="2" stroke-miterlimit="10" stroke-linecap="round" stroke-linejoin="round"/>
<path id="Vector_11" d="M301.544 48.7344C298.887 48.7344 296.247 48.7344 293.59 48.7344" stroke="white" stroke-width="2" stroke-miterlimit="10" stroke-linecap="round" stroke-linejoin="round"/>
<path id="Vector_12" d="M287.59 30.1406C285.622 30.1719 283.637 30.3281 281.669 30.1406C281.497 30.125 281.309 30.1875 281.122 30.2187" stroke="white" stroke-width="2" stroke-miterlimit="10" stroke-linecap="round" stroke-linejoin="round"/>
<path id="Vector_13" d="M277.294 54.375C275.169 54.375 273.028 54.375 270.903 54.375" stroke="white" stroke-width="2" stroke-miterlimit="10" stroke-linecap="round" stroke-linejoin="round"/>
<path id="Vector_14" d="M292.106 60.0625C292.106 61.9843 292.106 63.9062 292.106 65.8281" stroke="white" stroke-width="2" stroke-miterlimit="10" stroke-linecap="round" stroke-linejoin="round"/>
<path id="Vector_15" d="M289.997 48.7656C288.7 48.7656 287.403 48.7656 286.09 48.7656C285.7 48.7656 285.309 48.7344 284.919 48.7344" stroke="white" stroke-width="2" stroke-miterlimit="10" stroke-linecap="round" stroke-linejoin="round"/>
<path id="Vector_16" d="M259.825 71.375C259.122 72.0781 258.403 72.7656 257.731 73.4844C257.184 74.0625 257.184 74.3125 257.731 74.875C258.434 75.625 259.184 76.3281 259.903 77.0625" stroke="white" stroke-width="2" stroke-miterlimit="10" stroke-linecap="round" stroke-linejoin="round"/>
<path id="Vector_17" d="M269.528 70.9844C269.575 71.25 269.637 71.4844 269.872 71.7031C270.528 72.2969 271.137 72.9219 271.747 73.5625C272.137 73.9687 272.137 74.4687 271.747 74.875C271.059 75.5937 270.356 76.2969 269.637 76.9844C269.325 77.2812 268.919 77.0937 268.544 77.1406" stroke="white" stroke-width="2" stroke-miterlimit="10" stroke-linecap="round" stroke-linejoin="round"/>
<path id="Vector_18" d="M244.778 30.1406C244.778 30.5312 244.778 30.9219 244.778 31.3125" stroke="white" stroke-width="2" stroke-miterlimit="10" stroke-linecap="round" stroke-linejoin="round"/>
</g>
</g>
</g>
</g>
</g>
<defs>
<linearGradient id="paint0_linear_683_18600" x1="171.5" y1="2.60835e-06" x2="186.136" y2="106.464" gradientUnits="userSpaceOnUse">
<stop stop-color="#EFBB01"/>
<stop offset="1" stop-color="#F5A302"/>
</linearGradient>
</defs>
</svg>
