<svg width="343" height="114" viewBox="0 0 343 114" fill="none" xmlns="http://www.w3.org/2000/svg">
<g id="&#228;&#186;&#186;&#229;&#145;&#152;">
<mask id="mask0_683_18091" style="mask-type:alpha" maskUnits="userSpaceOnUse" x="0" y="0" width="343" height="114">
<g id="Rectangle 682" style="mix-blend-mode:screen">
<rect width="343" height="114" rx="8" fill="#C4C4C4"/>
</g>
</mask>
<g mask="url(#mask0_683_18091)">
<g id="Group 651">
<g id="&#229;&#143;&#145;&#229;&#141;&#149;&#229;&#141;&#161;&#231;&#137;&#135;">
<path d="M0 8C0 3.58172 3.58172 0 8 0H335C339.418 0 343 3.58172 343 8V106C343 110.418 339.418 114 335 114H7.99999C3.58172 114 0 110.418 0 106V8Z" fill="url(#paint0_linear_683_18091)"/>
<g id="Frame 1219">
<g id="Frame 1226">
<path id="&#229;&#136;&#151;&#232;&#161;&#168;&#230;&#160;&#135;&#233;&#162;&#152; copy 3" d="M22.132 23.776C21.46 24.004 20.728 24.22 19.948 24.424V22.264H22.9C22.996 23.176 23.128 23.968 23.296 24.652C23.416 25.12 23.548 25.564 23.692 25.972C22.816 26.8 21.796 27.436 20.62 27.868L21.088 28.612C22.18 28.18 23.164 27.58 24.028 26.812C24.22 27.244 24.448 27.628 24.688 27.952C25.24 28.672 25.756 29.032 26.248 29.032C26.8 29.032 27.22 28.18 27.508 26.476L26.752 26.08C26.56 27.424 26.356 28.096 26.116 28.108C25.888 28.108 25.576 27.808 25.192 27.232C25 26.956 24.832 26.608 24.664 26.2C25.42 25.396 26.068 24.436 26.62 23.308L25.876 22.912C25.444 23.8 24.928 24.592 24.352 25.288C24.268 25.024 24.184 24.748 24.112 24.436C23.968 23.848 23.86 23.128 23.776 22.264H27.412V21.436H23.704C23.632 20.5 23.596 19.432 23.584 18.22H22.72C22.72 19.396 22.756 20.464 22.828 21.436H19.948V19.636C20.572 19.468 21.172 19.288 21.724 19.096L21.436 18.28C20.116 18.796 18.604 19.144 16.9 19.336L17.08 20.164C17.764 20.068 18.424 19.96 19.06 19.828V21.436H16.588V22.264H19.06V24.628C18.28 24.796 17.452 24.94 16.576 25.084L16.696 25.96C17.512 25.828 18.292 25.672 19.06 25.504V27.784C19.06 28.108 18.892 28.276 18.556 28.276C18.16 28.276 17.752 28.252 17.332 28.216L17.512 29.044H18.844C19.576 29.044 19.948 28.696 19.948 28V25.3C20.716 25.096 21.436 24.88 22.132 24.652V23.776ZM24.904 18.352L24.328 18.904C25.24 19.54 25.948 20.14 26.476 20.692L27.1 20.068C26.5 19.492 25.768 18.928 24.904 18.352ZM28.696 18.676V19.456H32.236V20.524H29.44V23.548H32.596C32.404 23.884 32.2 24.244 31.984 24.616H28.54V25.408H31.504C31.24 25.816 30.976 26.236 30.688 26.656C31.684 26.884 32.68 27.148 33.676 27.448C32.596 27.868 30.976 28.204 28.84 28.456L29.164 29.224C31.756 28.876 33.628 28.396 34.768 27.784C36.1 28.216 37.432 28.708 38.752 29.272L39.292 28.564C38.02 28.06 36.772 27.628 35.548 27.256C36.184 26.74 36.628 26.128 36.868 25.408H39.448V24.616H32.956C33.148 24.28 33.352 23.932 33.568 23.548H38.56V20.524H35.764V19.456H39.304V18.676H28.696ZM34.624 26.98C33.7 26.716 32.8 26.488 31.912 26.296C32.092 26.032 32.284 25.732 32.488 25.408H35.992C35.752 26.032 35.296 26.56 34.624 26.98ZM34.936 20.524H33.064V19.456H34.936V20.524ZM37.732 22.804H35.764V21.28H37.732V22.804ZM34.936 22.804H33.064V21.28H34.936V22.804ZM32.236 22.804H30.268V21.28H32.236V22.804ZM41.392 21.88H44.368C43.528 24.556 42.244 26.656 40.492 28.192L40.936 28.984C42.304 27.868 43.432 26.368 44.308 24.472C44.704 25.312 45.364 26.092 46.3 26.812C45.4 27.4 44.284 27.94 42.94 28.432L43.396 29.236C44.848 28.672 46.072 28.048 47.056 27.352C48.064 28.012 49.336 28.624 50.872 29.188L51.316 28.384C49.924 27.904 48.736 27.376 47.764 26.8C48.748 25.96 49.396 25.024 49.72 23.992V23.248H44.812C44.98 22.816 45.124 22.36 45.268 21.88H51.112V21.052H45.496C45.712 20.164 45.904 19.228 46.06 18.22L45.184 18.112C45.04 19.144 44.848 20.116 44.608 21.052H42.508L43.192 18.688L42.34 18.544L41.392 21.88ZM44.956 24.04H48.844C48.508 24.856 47.896 25.612 47.008 26.308C46.048 25.612 45.364 24.856 44.956 24.04ZM48.076 18.208L47.5 18.772C48.4 19.492 49.108 20.164 49.612 20.8L50.224 20.188C49.648 19.528 48.94 18.868 48.076 18.208ZM58.348 21.352V22.816H55.528C56.104 22.132 56.608 21.388 57.04 20.596H63.28V19.756H57.46C57.676 19.288 57.868 18.784 58.036 18.256L57.16 18.148C56.98 18.7 56.764 19.228 56.5 19.756H52.84V20.596H56.044C55.168 22.06 53.968 23.344 52.444 24.472L52.996 25.192C53.704 24.652 54.352 24.076 54.952 23.464V28.06H55.78V23.62H58.348V29.2H59.176V23.62H61.732V26.668C61.732 27.016 61.54 27.196 61.156 27.196L60.088 27.172L60.304 27.976H61.432C62.176 27.976 62.56 27.592 62.56 26.848V22.816H59.176V21.352H58.348Z" fill="white" fill-opacity="0.6"/>
<path id="&#229;&#136;&#151;&#232;&#161;&#168;&#230;&#160;&#135;&#233;&#162;&#152;" d="M30.17 35.732H27.674C27.674 36.72 27.648 38.072 27.648 39.814C27.44 47.276 23.826 53.126 16.806 57.39L18.314 59.6C23.774 56.064 27.362 51.592 29.078 46.184C31.054 51.748 34.538 56.22 39.53 59.548L41.168 57.39C35.24 53.75 31.496 48.472 29.988 41.556C30.092 39.944 30.17 38.02 30.17 35.732ZM63.97 44.988H46.056V55.232H48.5V47.25H61.526V54.842H63.97V44.988ZM47.59 36.46V43.402H62.436V36.46H47.59ZM60.044 41.27H49.982V38.644H60.044V41.27ZM53.986 48.602C53.778 51.722 53.102 53.906 51.932 55.18C50.58 56.532 47.798 57.312 43.612 57.52L44.574 59.782C49.592 59.314 52.764 58.248 54.064 56.636C55.312 55.336 56.118 52.736 56.482 48.836L53.986 48.602ZM57.054 54.478L55.832 56.324C58.952 57.156 61.994 58.326 64.958 59.808L66.31 57.754C63.502 56.48 60.434 55.388 57.054 54.478ZM71.744 39.58V50.734H79.778V52.788H69.378V55.128H79.778V59.782H82.222V55.128H92.622V52.788H82.222V50.734H90.256V39.58H85.524C86.252 38.592 86.902 37.5 87.474 36.304L85.082 35.446C84.484 36.902 83.782 38.28 82.95 39.58H77.698L79.258 38.8C78.478 37.604 77.646 36.538 76.762 35.576L74.708 36.564C75.514 37.448 76.268 38.462 76.996 39.58H71.744ZM87.864 48.55H82.222V46.158H87.864V48.55ZM79.778 48.55H74.136V46.158H79.778V48.55ZM74.136 44.078V41.738H79.778V44.078H74.136ZM82.222 41.738H87.864V44.078H82.222V41.738Z" fill="white"/>
</g>
<path id="&#229;&#136;&#151;&#232;&#161;&#168;&#230;&#160;&#135;&#233;&#162;&#152; copy 2" d="M18.842 85.306V86.188H26.318V87.476H18.31V88.386H27.312V83.122H18.478V84.032H26.318V85.306H18.842ZM16.812 89.786V90.752H25.184V93.804C25.184 94.196 24.974 94.392 24.582 94.392C24.05 94.392 23.504 94.364 22.93 94.336L23.154 95.288H24.918C25.758 95.288 26.192 94.868 26.192 94.056V90.752H29.202V89.786H26.192V88.764H25.184V89.786H16.812ZM19.92 91.326L19.234 91.984C20.242 92.74 21.04 93.44 21.628 94.112L22.342 93.398C21.698 92.712 20.886 92.026 19.92 91.326ZM42.572 85.362L38.316 86.146C38.232 85.082 38.19 83.878 38.19 82.562H37.168C37.168 83.962 37.224 85.208 37.322 86.328L35.418 86.678L35.572 87.658L37.42 87.308C37.532 88.33 37.686 89.212 37.882 89.968C38.022 90.528 38.19 91.046 38.372 91.536C37.42 92.278 36.328 92.866 35.124 93.286L35.67 94.14C36.79 93.72 37.826 93.174 38.75 92.488C38.988 93.034 39.254 93.51 39.534 93.916C40.178 94.812 40.822 95.26 41.466 95.26C41.872 95.26 42.236 94.924 42.558 94.266C42.81 93.72 43.062 93.034 43.286 92.222L42.39 91.662C42.054 93.272 41.718 94.112 41.41 94.168C40.99 94.154 40.514 93.734 39.982 92.922C39.814 92.628 39.66 92.278 39.492 91.886C40.64 90.864 41.606 89.604 42.39 88.092L41.522 87.63C40.878 88.89 40.08 89.968 39.142 90.864C38.988 90.388 38.848 89.856 38.722 89.282C38.582 88.638 38.484 87.924 38.4 87.126L42.726 86.328L42.572 85.362ZM35.334 88.092C34.774 88.4 34.214 88.68 33.626 88.932V86.104H35.292V85.138H33.626V82.604H32.604V85.138H30.7V86.104H32.604V89.338C31.918 89.59 31.218 89.8 30.518 89.982L30.784 91.032C31.4 90.836 32.002 90.626 32.604 90.388V93.818C32.604 94.196 32.408 94.392 32.044 94.392C31.708 94.392 31.344 94.364 30.966 94.322L31.19 95.316H32.394C33.206 95.316 33.626 94.896 33.626 94.07V89.954C34.2 89.702 34.774 89.436 35.334 89.128V88.092ZM40.29 82.576L39.394 82.996C39.87 83.542 40.304 84.158 40.71 84.844L41.62 84.396C41.2 83.738 40.766 83.136 40.29 82.576ZM54.962 90.136H47.094V95.428H48.088V94.756H53.954V95.428H54.962V90.136ZM48.088 93.776V91.088H53.954V93.776H48.088ZM49.138 82.464C48.186 84.116 46.954 85.46 45.456 86.496L46.1 87.28C46.814 86.776 47.472 86.202 48.074 85.558C48.662 86.258 49.348 86.902 50.132 87.462C48.578 88.33 46.744 88.932 44.63 89.282L45.064 90.192C47.36 89.758 49.334 89.044 51.014 88.036C52.638 89.03 54.612 89.73 56.936 90.136L57.37 89.226C55.242 88.89 53.408 88.302 51.868 87.476C53.03 86.65 54.024 85.656 54.85 84.508V83.696H49.544C49.754 83.374 49.95 83.038 50.146 82.688L49.138 82.464ZM48.662 84.886C48.718 84.802 48.788 84.718 48.872 84.634H53.59C52.862 85.516 51.994 86.286 50.986 86.958C50.09 86.37 49.306 85.67 48.662 84.886ZM65.518 87.224C67.086 87.77 68.64 88.484 70.152 89.366L70.698 88.526C69.13 87.756 67.394 87.098 65.518 86.538V86.286H70.908V85.348H65.518V82.548H64.482V85.348H59.092V86.286H63.516C62.732 87.182 61.248 87.98 59.078 88.68L59.624 89.548C61.962 88.638 63.558 87.546 64.398 86.286H64.482V88.834H65.518V87.224ZM64.818 91.816C66.134 93.524 68.108 94.714 70.712 95.4L71.216 94.504C68.85 93.944 67.016 92.964 65.7 91.55H71.02V90.612H65.294C65.406 90.206 65.504 89.758 65.56 89.282H64.524C64.468 89.758 64.37 90.192 64.23 90.612H58.98V91.55H63.824C63.6 91.956 63.306 92.32 62.97 92.642C62.116 93.426 60.73 94.028 58.812 94.448L59.204 95.386C61.346 94.868 62.872 94.168 63.782 93.272C64.202 92.852 64.538 92.362 64.818 91.816ZM61.584 82.758L60.716 83.052C61.164 83.654 61.528 84.284 61.808 84.928L62.662 84.704C62.354 83.976 61.99 83.318 61.584 82.758ZM68.374 82.73C68.066 83.5 67.688 84.144 67.254 84.648L68.094 84.956C68.57 84.368 68.962 83.71 69.256 82.954L68.374 82.73ZM72.868 83.108V84.06H74.31V88.106H72.616V89.072H74.296C74.198 91.62 73.638 93.496 72.616 94.7L73.372 95.358C74.562 94.014 75.22 91.914 75.332 89.072H77.432V95.302H78.454V89.072H80.064V88.106H78.454V84.06H79.854V83.108H72.868ZM75.346 84.06H77.432V88.106H75.346V84.06ZM83.942 82.604C82.878 83.752 81.534 84.676 79.91 85.376L80.344 86.3C82.052 85.516 83.466 84.536 84.6 83.36L83.942 82.604ZM84.544 86.398C83.48 87.63 82.136 88.638 80.498 89.394L80.932 90.304C82.64 89.464 84.054 88.414 85.202 87.154L84.544 86.398ZM84.894 90.276C83.55 91.984 81.856 93.356 79.798 94.392L80.232 95.33C82.36 94.196 84.138 92.768 85.566 91.032L84.894 90.276ZM86.868 83.108V84.06H88.31V88.106H86.616V89.072H88.296C88.198 91.62 87.638 93.496 86.616 94.7L87.372 95.358C88.562 94.014 89.22 91.914 89.332 89.072H91.432V95.302H92.454V89.072H94.064V88.106H92.454V84.06H93.854V83.108H86.868ZM89.346 84.06H91.432V88.106H89.346V84.06ZM97.942 82.604C96.878 83.752 95.534 84.676 93.91 85.376L94.344 86.3C96.052 85.516 97.466 84.536 98.6 83.36L97.942 82.604ZM98.544 86.398C97.48 87.63 96.136 88.638 94.498 89.394L94.932 90.304C96.64 89.464 98.054 88.414 99.202 87.154L98.544 86.398ZM98.894 90.276C97.55 91.984 95.856 93.356 93.798 94.392L94.232 95.33C96.36 94.196 98.138 92.768 99.566 91.032L98.894 90.276ZM100.91 85.068V86.048H107.812C107.924 87.812 108.134 89.352 108.456 90.682C109.296 93.734 110.332 95.302 111.578 95.358C112.292 95.344 112.866 94.322 113.286 92.306L112.376 91.83C112.082 93.398 111.788 94.196 111.508 94.238C111.046 94.238 110.514 93.454 109.926 91.914C109.38 90.346 109.016 88.4 108.848 86.048H113.118V85.068H108.792C108.75 84.284 108.736 83.458 108.736 82.59H107.7C107.7 83.444 107.714 84.27 107.756 85.068H100.91ZM101.12 88.372V89.324H103.584V93.146C102.688 93.286 101.764 93.426 100.84 93.538L101.078 94.49C103.402 94.154 105.586 93.748 107.602 93.258V92.278C106.622 92.53 105.628 92.768 104.592 92.964V89.324H107.056V88.372H101.12ZM110.85 82.66L110.01 83.066C110.486 83.612 110.92 84.228 111.326 84.928L112.166 84.508C111.746 83.836 111.312 83.22 110.85 82.66ZM114.91 85.068V86.048H121.812C121.924 87.812 122.134 89.352 122.456 90.682C123.296 93.734 124.332 95.302 125.578 95.358C126.292 95.344 126.866 94.322 127.286 92.306L126.376 91.83C126.082 93.398 125.788 94.196 125.508 94.238C125.046 94.238 124.514 93.454 123.926 91.914C123.38 90.346 123.016 88.4 122.848 86.048H127.118V85.068H122.792C122.75 84.284 122.736 83.458 122.736 82.59H121.7C121.7 83.444 121.714 84.27 121.756 85.068H114.91ZM115.12 88.372V89.324H117.584V93.146C116.688 93.286 115.764 93.426 114.84 93.538L115.078 94.49C117.402 94.154 119.586 93.748 121.602 93.258V92.278C120.622 92.53 119.628 92.768 118.592 92.964V89.324H121.056V88.372H115.12ZM124.85 82.66L124.01 83.066C124.486 83.612 124.92 84.228 125.326 84.928L126.166 84.508C125.746 83.836 125.312 83.22 124.85 82.66ZM133.656 84.984H131.402C131.682 84.284 131.892 83.514 132.06 82.688L131.052 82.548C130.926 83.388 130.73 84.2 130.45 84.984H129.148V94.938H130.128V93.734H132.676V94.532H133.656V84.984ZM130.128 92.796V89.73H132.676V92.796H130.128ZM130.128 88.82V85.936H132.676V88.82H130.128ZM136.092 88.232L135.28 88.736C136.246 89.884 137.016 90.92 137.59 91.844L138.388 91.284C137.856 90.416 137.1 89.394 136.092 88.232ZM140.894 84.998H136.428C136.68 84.27 136.876 83.486 137.044 82.66L136.05 82.534C135.686 84.522 135.028 86.202 134.048 87.574L134.65 88.372C135.196 87.658 135.658 86.86 136.05 85.978H139.9C139.872 90.01 139.816 92.432 139.732 93.216C139.62 93.93 139.242 94.294 138.584 94.294C138.15 94.294 137.646 94.28 137.058 94.252L137.296 95.176C137.968 95.204 138.444 95.232 138.724 95.232C139.9 95.232 140.544 94.686 140.684 93.622C140.824 92.53 140.894 89.646 140.894 84.998ZM142.714 86.832V87.812H146.438C146.144 88.778 145.822 89.702 145.486 90.598H152.402C151.66 91.522 150.638 92.418 149.35 93.258C148.384 92.922 147.376 92.6 146.326 92.32L145.794 93.104C148.02 93.706 150.19 94.518 152.29 95.554L152.85 94.672C152.08 94.308 151.268 93.958 150.428 93.65C151.87 92.614 152.92 91.564 153.592 90.528V89.66H146.928C147.124 89.086 147.334 88.47 147.53 87.812H155.286V86.832H147.796C147.936 86.286 148.076 85.712 148.216 85.096H154.46V84.158H148.426C148.538 83.654 148.636 83.108 148.748 82.548L147.712 82.464C147.6 83.024 147.488 83.584 147.362 84.158H143.666V85.096H147.152C147.012 85.684 146.872 86.258 146.718 86.832H142.714ZM160.97 82.702V93.832H156.798V94.812H169.202V93.832H165.002V82.702H163.98V93.832H161.992V82.702H160.97ZM167.928 85.25C167.326 87.812 166.612 89.926 165.8 91.578L166.71 91.9C167.564 90.066 168.264 87.938 168.824 85.502L167.928 85.25ZM158.002 85.222L157.148 85.502C157.904 87.574 158.534 89.73 159.038 91.97L159.962 91.732C159.388 89.282 158.73 87.112 158.002 85.222ZM177.504 82.59H176.482C176.482 83.122 176.468 83.864 176.454 84.816C176.328 88.848 174.34 92.054 170.49 94.42L171.106 95.316C174.214 93.314 176.202 90.794 177.042 87.742C178.036 90.906 179.968 93.426 182.824 95.302L183.482 94.42C180.22 92.418 178.19 89.506 177.406 85.698C177.462 84.83 177.504 83.794 177.504 82.59ZM195.718 87.644H186.296V93.034H187.29V88.568H194.724V92.866H195.718V87.644ZM187.136 83.08V86.594H194.878V83.08H187.136ZM193.898 85.712H188.116V83.976H193.898V85.712ZM190.622 89.478C190.51 91.2 190.118 92.418 189.474 93.132C188.732 93.902 187.22 94.35 184.952 94.49L185.344 95.4C187.948 95.162 189.614 94.602 190.342 93.734C191.014 93.006 191.448 91.62 191.644 89.562L190.622 89.478ZM192.008 92.726L191.504 93.482C193.198 93.958 194.85 94.602 196.46 95.442L197.006 94.602C195.494 93.874 193.828 93.244 192.008 92.726Z" fill="white" fill-opacity="0.6"/>
</g>
</g>
<g id="&#228;&#186;&#186;&#229;&#145;&#152;_2" opacity="0.6">
<g id="Group">
<path id="Vector" d="M247.677 56.0968C247.726 55.3871 247.339 54.8387 246.952 54.3387C246.339 53.5484 245.661 52.7903 245.032 52C244.71 51.5968 244.323 51.5161 243.823 51.5161C240.307 51.5323 236.79 51.4839 233.274 51.5484C231.677 51.5806 230.436 50.3064 230.436 48.7097C230.468 39.4032 230.468 30.129 230.436 20.8387C230.436 19.2419 231.677 18 233.274 18C244.274 18.0323 255.274 18.0323 266.274 18C268.065 18 269.161 19.4032 269.113 20.8387C269.032 22.6935 269.097 24.5323 269.097 26.3871C269.097 26.9677 269.081 27.5484 269.355 28.0645C269.436 28.2097 269.484 28.3548 269.419 28.4677C268.936 29.2581 269.113 30.129 269.113 30.9677C269.097 36.8387 269.065 42.7258 269.129 48.5968C269.145 50.2742 267.887 51.629 266.21 51.5C265.5 51.4516 264.774 51.3871 264.113 51.8064C264.032 51.8548 263.887 51.8548 263.807 51.8064C262.887 51.2742 261.871 51.5161 260.903 51.5C258.968 51.4677 257.032 51.4677 255.113 51.5C253.871 51.5161 253.677 51.6935 253.677 52.9355C253.694 54.1452 253.532 55.3548 253.952 56.5645C254.242 57.4032 253.113 58.8548 252.226 59.129C251.565 59.3387 251.113 59.0161 250.71 58.629C250.161 58.0968 249.694 57.5 249.161 56.9516C248.532 56.2903 247.839 55.8548 246.903 56.4516C246.581 56.6613 246.161 56.629 245.79 56.629C242.484 56.629 239.194 56.6774 235.887 56.6129C234.29 56.5806 233.048 57.8548 233.048 59.4516C233.097 67.871 233.097 76.3065 233.048 84.7258C233.048 86.3226 234.29 87.5806 235.887 87.5645C240.226 87.5161 244.581 87.5484 248.919 87.5323C249.484 87.5323 249.919 87.6452 250.29 88.0968C251.742 89.8871 253.226 91.6452 254.71 93.4194C255.048 93.8226 255.387 94.2419 255.758 94.629C256.274 95.129 256.823 95.4516 257.613 95.129C258.484 94.7903 258.807 94.1935 258.807 93.3387C258.823 91.9516 258.807 90.5484 258.807 89.1613C258.807 87.7581 259.016 87.5484 260.419 87.5484C264.952 87.5484 269.484 87.5161 274.016 87.5645C275.613 87.5806 276.855 86.3226 276.855 84.7258C276.807 77.2097 276.839 69.7097 276.839 62.1935" stroke="white" stroke-width="2" stroke-miterlimit="10" stroke-linecap="round" stroke-linejoin="round"/>
<path id="Vector_2" d="M263.936 51.9194C263.936 53.0161 264.032 54.129 263.903 55.2097C263.79 56.1935 263.71 57.1452 263.919 58.1129C264 58.4516 263.936 58.8064 263.936 59.1613C263.887 60.629 265.129 61.8387 266.597 61.8226C269.274 61.8064 271.968 61.8226 274.645 61.8064C275.387 61.8064 276.145 62.0806 276.823 62.0806C277.5 62.0806 278.242 61.7903 279 61.8064C279.565 61.8226 280.129 61.7903 280.694 61.8064C281.661 61.8387 281.968 62.1129 281.984 63.0968C282 64.5645 281.984 66.0484 281.984 67.5161C281.984 68.1613 282.113 68.7258 282.71 69.129C283.581 69.7097 284.29 69.6935 285.032 68.871C285.952 67.8548 286.823 66.7903 287.694 65.7419C288.629 64.6129 289.581 63.5 290.5 62.3548C290.871 61.8871 291.306 61.7903 291.871 61.7903C296.21 61.8064 300.565 61.7581 304.903 61.8226C306.5 61.8387 307.742 60.5806 307.742 58.9839C307.71 49.7097 307.71 40.4194 307.742 31.129C307.742 29.7097 306.694 28.2903 304.903 28.2903C293.097 28.3226 281.29 28.3065 269.484 28.3065" stroke="white" stroke-width="2" stroke-miterlimit="10" stroke-linecap="round" stroke-linejoin="round"/>
<path id="Vector_3" d="M282.113 42.0161C281.984 42.5161 281.952 43.0323 281.952 43.5484C281.968 46.7419 281.952 49.9355 281.952 53.129C281.952 53.4516 281.903 53.8387 282.048 54.0807C282.532 54.9194 281.968 55.4839 281.629 56.0968C281.29 56.7097 280.694 56.6613 280.097 56.6613C278.677 56.6613 277.258 56.6129 275.839 56.6774C274.887 56.7097 274.21 56 274.21 55.0484C274.242 50.9677 274.242 46.8871 274.21 42.8226C274.194 41.871 274.887 41.1613 275.839 41.1935C277.339 41.2419 278.839 41.2258 280.339 41.1935C280.758 41.1935 281.177 41.2581 281.452 41.5323C282.032 42.1129 282.5 41.9032 283 41.4355C284.677 39.871 285.871 38 286.532 35.8064C287.29 33.3387 289.726 32.6613 291.597 34.4355C292.581 35.371 293.048 36.5161 292.807 37.8871C292.694 38.5 292.581 39.1129 292.548 39.7419C292.5 40.871 292.71 41.1613 293.855 41.1935C294.613 41.2097 295.355 41.1774 296.113 41.1935C298.145 41.2419 299.694 42.5323 299.871 44.5806C300.113 47.4677 300.113 50.3871 299.871 53.2742C299.71 55.2581 298.226 56.629 296.274 56.629C293.677 56.6452 291.065 56.8065 288.468 56.5C287.032 56.3387 285.677 55.9194 284.371 55.3548C283.726 55.0645 283.081 54.7581 282.355 54.7097" stroke="white" stroke-width="2" stroke-miterlimit="10" stroke-linecap="round" stroke-linejoin="round"/>
<path id="Vector_4" d="M249.758 28.0161C249.387 27.7742 248.968 27.5807 248.629 27.2903C245.081 24.2097 239.645 25.9839 238.419 30.7581C237.629 33.871 238.613 36.4678 240.984 38.5645C243.532 40.8226 246.081 43.0645 248.629 45.3387C248.984 45.6452 249.355 45.9194 249.774 46.129C250.935 45.5323 251.79 44.5645 252.742 43.7097C254.984 41.7258 257.339 39.8387 259.419 37.6613C262.548 34.371 261.952 28.5645 257.645 26.4194C255.355 25.2742 253.113 25.5645 251.065 27.129C250.677 27.4194 250.323 27.7419 249.855 27.9355" stroke="white" stroke-width="2" stroke-miterlimit="10" stroke-linecap="round" stroke-linejoin="round"/>
<path id="Vector_5" d="M257.081 71.9516C257.355 71.5323 257.532 71.0484 257.871 70.6613C259.258 69.129 258.919 66.6452 257.403 65.3387C255.774 63.9355 253.306 64.2097 251.968 65.7419C250.774 67.1129 250.742 69.4677 251.984 70.7581C252.306 71.0806 252.484 71.5484 252.726 71.9516" stroke="white" stroke-width="2" stroke-miterlimit="10" stroke-linecap="round" stroke-linejoin="round"/>
<path id="Vector_6" d="M267.387 74.6129C267.613 74.129 267.823 73.6452 268.194 73.2419C269.581 71.7097 269.242 69.2258 267.726 67.9194C266.097 66.5161 263.581 66.7581 262.307 68.3226C261.436 69.4032 261.161 70.5484 261.516 71.871C261.629 72.2903 261.774 72.7258 261.823 73.1613C261.903 73.6935 261.952 74.2097 261.71 74.7903C261.371 75.5645 261.548 76.4677 261.774 77.2742C262.242 78.9677 262.258 80.7097 262.484 82.4355" stroke="white" stroke-width="2" stroke-miterlimit="10" stroke-linecap="round" stroke-linejoin="round"/>
<path id="Vector_7" d="M247.355 82.4194C247.581 80.5645 247.645 78.6774 248.145 76.8549C248.371 76.0645 248.323 75.2581 248.016 74.4355C247.71 73.5968 248.113 72.7742 248.323 71.9516C248.565 70.9516 248.548 70 248.016 69.0484C247.21 67.5968 245.984 66.9194 244.387 66.9839C242.855 67.0484 241.726 67.8871 241.113 69.2419C240.468 70.6452 240.629 72.0323 241.661 73.2581C242.016 73.6774 242.226 74.1452 242.452 74.629" stroke="white" stroke-width="2" stroke-miterlimit="10" stroke-linecap="round" stroke-linejoin="round"/>
<path id="Vector_8" d="M263.565 56.6613C260.387 56.6613 257.21 56.6613 254.032 56.6613" stroke="white" stroke-width="2" stroke-miterlimit="10" stroke-linecap="round" stroke-linejoin="round"/>
<path id="Vector_9" d="M247.919 74.4516C246.258 74.6936 244.597 74.7903 242.936 74.6129C242.742 74.5968 242.532 74.5484 242.371 74.6936C240.984 75.9839 239.226 76.9032 238.581 78.871C238.194 80.0323 238.161 81.2097 238.194 82.4194" stroke="white" stroke-width="2" stroke-miterlimit="10" stroke-linecap="round" stroke-linejoin="round"/>
<path id="Vector_10" d="M262 74.4516C263.597 74.7097 265.21 74.7903 266.823 74.6129C267.032 74.5968 267.29 74.5161 267.468 74.6936C268.855 75.9677 270.613 76.9032 271.258 78.871C271.645 80.0323 271.678 81.2097 271.645 82.4194" stroke="white" stroke-width="2" stroke-miterlimit="10" stroke-linecap="round" stroke-linejoin="round"/>
<path id="Vector_11" d="M261.678 74.6129C260.032 74.4194 258.871 73.2903 257.581 72.4194C257.21 72.1774 256.903 71.9677 256.436 72.0323C255.371 72.1774 254.29 72.129 253.21 72.0323C252.839 72 252.597 72.1613 252.323 72.3548C251.016 73.2581 249.823 74.4032 248.145 74.6129" stroke="white" stroke-width="2" stroke-miterlimit="10" stroke-linecap="round" stroke-linejoin="round"/>
<path id="Vector_12" d="M249.758 28.0968C249.758 28.7419 249.758 29.3871 249.758 30.0323" stroke="white" stroke-width="2" stroke-miterlimit="10" stroke-linecap="round" stroke-linejoin="round"/>
</g>
</g>
</g>
</g>
</g>
<defs>
<linearGradient id="paint0_linear_683_18091" x1="171.5" y1="2.60835e-06" x2="186.136" y2="106.464" gradientUnits="userSpaceOnUse">
<stop stop-color="#4ACE4D"/>
<stop offset="1" stop-color="#1EBA6F"/>
</linearGradient>
</defs>
</svg>
