<svg width="343" height="114" viewBox="0 0 343 114" fill="none" xmlns="http://www.w3.org/2000/svg">
<g id="&#229;&#139;&#152;&#232;&#174;&#190;">
<mask id="mask0_683_19115" style="mask-type:alpha" maskUnits="userSpaceOnUse" x="0" y="0" width="343" height="114">
<g id="Rectangle 681" style="mix-blend-mode:screen">
<rect width="343" height="114" rx="8" fill="#C4C4C4"/>
</g>
</mask>
<g mask="url(#mask0_683_19115)">
<g id="Group 654">
<g id="&#229;&#143;&#145;&#229;&#141;&#149;&#229;&#141;&#161;&#231;&#137;&#135;">
<path d="M0 8C0 3.58172 3.58172 0 8 0H335C339.418 0 343 3.58172 343 8V106C343 110.418 339.418 114 335 114H7.99999C3.58172 114 0 110.418 0 106V8Z" fill="url(#paint0_linear_683_19115)"/>
<g id="Frame 1219">
<g id="Frame 1226">
<path id="&#229;&#136;&#151;&#232;&#161;&#168;&#230;&#160;&#135;&#233;&#162;&#152; copy 3" d="M22.132 23.776C21.46 24.004 20.728 24.22 19.948 24.424V22.264H22.9C22.996 23.176 23.128 23.968 23.296 24.652C23.416 25.12 23.548 25.564 23.692 25.972C22.816 26.8 21.796 27.436 20.62 27.868L21.088 28.612C22.18 28.18 23.164 27.58 24.028 26.812C24.22 27.244 24.448 27.628 24.688 27.952C25.24 28.672 25.756 29.032 26.248 29.032C26.8 29.032 27.22 28.18 27.508 26.476L26.752 26.08C26.56 27.424 26.356 28.096 26.116 28.108C25.888 28.108 25.576 27.808 25.192 27.232C25 26.956 24.832 26.608 24.664 26.2C25.42 25.396 26.068 24.436 26.62 23.308L25.876 22.912C25.444 23.8 24.928 24.592 24.352 25.288C24.268 25.024 24.184 24.748 24.112 24.436C23.968 23.848 23.86 23.128 23.776 22.264H27.412V21.436H23.704C23.632 20.5 23.596 19.432 23.584 18.22H22.72C22.72 19.396 22.756 20.464 22.828 21.436H19.948V19.636C20.572 19.468 21.172 19.288 21.724 19.096L21.436 18.28C20.116 18.796 18.604 19.144 16.9 19.336L17.08 20.164C17.764 20.068 18.424 19.96 19.06 19.828V21.436H16.588V22.264H19.06V24.628C18.28 24.796 17.452 24.94 16.576 25.084L16.696 25.96C17.512 25.828 18.292 25.672 19.06 25.504V27.784C19.06 28.108 18.892 28.276 18.556 28.276C18.16 28.276 17.752 28.252 17.332 28.216L17.512 29.044H18.844C19.576 29.044 19.948 28.696 19.948 28V25.3C20.716 25.096 21.436 24.88 22.132 24.652V23.776ZM24.904 18.352L24.328 18.904C25.24 19.54 25.948 20.14 26.476 20.692L27.1 20.068C26.5 19.492 25.768 18.928 24.904 18.352ZM28.696 18.676V19.456H32.236V20.524H29.44V23.548H32.596C32.404 23.884 32.2 24.244 31.984 24.616H28.54V25.408H31.504C31.24 25.816 30.976 26.236 30.688 26.656C31.684 26.884 32.68 27.148 33.676 27.448C32.596 27.868 30.976 28.204 28.84 28.456L29.164 29.224C31.756 28.876 33.628 28.396 34.768 27.784C36.1 28.216 37.432 28.708 38.752 29.272L39.292 28.564C38.02 28.06 36.772 27.628 35.548 27.256C36.184 26.74 36.628 26.128 36.868 25.408H39.448V24.616H32.956C33.148 24.28 33.352 23.932 33.568 23.548H38.56V20.524H35.764V19.456H39.304V18.676H28.696ZM34.624 26.98C33.7 26.716 32.8 26.488 31.912 26.296C32.092 26.032 32.284 25.732 32.488 25.408H35.992C35.752 26.032 35.296 26.56 34.624 26.98ZM34.936 20.524H33.064V19.456H34.936V20.524ZM37.732 22.804H35.764V21.28H37.732V22.804ZM34.936 22.804H33.064V21.28H34.936V22.804ZM32.236 22.804H30.268V21.28H32.236V22.804ZM41.392 21.88H44.368C43.528 24.556 42.244 26.656 40.492 28.192L40.936 28.984C42.304 27.868 43.432 26.368 44.308 24.472C44.704 25.312 45.364 26.092 46.3 26.812C45.4 27.4 44.284 27.94 42.94 28.432L43.396 29.236C44.848 28.672 46.072 28.048 47.056 27.352C48.064 28.012 49.336 28.624 50.872 29.188L51.316 28.384C49.924 27.904 48.736 27.376 47.764 26.8C48.748 25.96 49.396 25.024 49.72 23.992V23.248H44.812C44.98 22.816 45.124 22.36 45.268 21.88H51.112V21.052H45.496C45.712 20.164 45.904 19.228 46.06 18.22L45.184 18.112C45.04 19.144 44.848 20.116 44.608 21.052H42.508L43.192 18.688L42.34 18.544L41.392 21.88ZM44.956 24.04H48.844C48.508 24.856 47.896 25.612 47.008 26.308C46.048 25.612 45.364 24.856 44.956 24.04ZM48.076 18.208L47.5 18.772C48.4 19.492 49.108 20.164 49.612 20.8L50.224 20.188C49.648 19.528 48.94 18.868 48.076 18.208ZM58.348 21.352V22.816H55.528C56.104 22.132 56.608 21.388 57.04 20.596H63.28V19.756H57.46C57.676 19.288 57.868 18.784 58.036 18.256L57.16 18.148C56.98 18.7 56.764 19.228 56.5 19.756H52.84V20.596H56.044C55.168 22.06 53.968 23.344 52.444 24.472L52.996 25.192C53.704 24.652 54.352 24.076 54.952 23.464V28.06H55.78V23.62H58.348V29.2H59.176V23.62H61.732V26.668C61.732 27.016 61.54 27.196 61.156 27.196L60.088 27.172L60.304 27.976H61.432C62.176 27.976 62.56 27.592 62.56 26.848V22.816H59.176V21.352H58.348Z" fill="white" fill-opacity="0.6"/>
<path id="&#229;&#136;&#151;&#232;&#161;&#168;&#230;&#160;&#135;&#233;&#162;&#152;" d="M17.118 37.812V39.892H19.302V48.16H16.884V50.318H18.028V58.56H28.168V56.324H20.368V50.318H30.768V48.16H28.558V39.892H30.664V37.812H28.558V35.706H26.27V37.812H21.616V35.732H19.302V37.812H17.118ZM21.616 48.16V46.574H26.27V48.16H21.616ZM21.616 44.754V43.298H26.27V44.754H21.616ZM21.616 41.452V39.892H26.27V41.452H21.616ZM32.692 35.68V41.114H30.378V43.48H32.692C32.588 50.188 31.314 55.076 28.818 58.144L30.664 59.782C33.472 56.324 34.954 50.89 35.084 43.48H37.866C37.814 50.292 37.736 54.27 37.606 55.466C37.45 56.61 36.904 57.182 35.994 57.182C35.37 57.182 34.616 57.13 33.758 57.078L34.356 59.314C35.344 59.392 36.02 59.444 36.41 59.444C38.438 59.444 39.556 58.456 39.816 56.532C40.05 54.582 40.18 49.434 40.18 41.114H35.084V35.68H32.692ZM22.916 50.734C22.266 52.164 21.486 53.412 20.576 54.452L22.318 55.7C23.228 54.53 24.008 53.152 24.684 51.592L22.916 50.734ZM27.258 50.578L25.542 51.618C26.556 53.048 27.362 54.348 27.96 55.518L29.728 54.244C29.156 53.204 28.324 51.982 27.258 50.578ZM46.394 36.07L44.704 37.682C46.498 39.034 47.902 40.334 48.89 41.556L50.58 39.84C49.436 38.592 48.058 37.318 46.394 36.07ZM43.066 43.48V45.846H46.498V55.31C46.498 55.856 46.264 56.324 45.848 56.688L46.784 58.924C48.682 57.702 50.476 56.298 52.166 54.738L51.49 52.138C50.554 53.022 49.696 53.802 48.89 54.478V43.48H43.066ZM52.348 46.574V48.966H53.83C54.454 51.046 55.676 52.944 57.444 54.66C55.572 55.908 53.258 56.922 50.502 57.728L51.88 59.808C54.844 58.924 57.366 57.754 59.394 56.298C61.162 57.598 63.32 58.794 65.92 59.834L67.246 57.702C64.906 56.87 62.878 55.882 61.214 54.79C62.956 53.126 64.204 51.15 64.958 48.836V46.574H52.348ZM56.144 48.966H62.462C61.708 50.578 60.616 52.008 59.212 53.282C57.756 51.982 56.742 50.552 56.144 48.966ZM54.168 36.538V39.892C54.168 41.66 53.05 43.038 50.866 44.026L52.504 45.924C55.234 44.442 56.612 42.336 56.612 39.632V38.852H60.928V42.544C60.928 44.26 61.838 45.144 63.684 45.144H66.622V42.882H64.334C63.684 42.882 63.372 42.57 63.372 41.998V36.538H54.168ZM71.744 39.58V50.734H79.778V52.788H69.378V55.128H79.778V59.782H82.222V55.128H92.622V52.788H82.222V50.734H90.256V39.58H85.524C86.252 38.592 86.902 37.5 87.474 36.304L85.082 35.446C84.484 36.902 83.782 38.28 82.95 39.58H77.698L79.258 38.8C78.478 37.604 77.646 36.538 76.762 35.576L74.708 36.564C75.514 37.448 76.268 38.462 76.996 39.58H71.744ZM87.864 48.55H82.222V46.158H87.864V48.55ZM79.778 48.55H74.136V46.158H79.778V48.55ZM74.136 44.078V41.738H79.778V44.078H74.136ZM82.222 41.738H87.864V44.078H82.222V41.738Z" fill="white"/>
</g>
<path id="&#229;&#136;&#151;&#232;&#161;&#168;&#230;&#160;&#135;&#233;&#162;&#152; copy 2" d="M18.576 82.912L17.806 83.458C18.562 84.242 19.192 84.984 19.682 85.684L20.466 85.138C20.018 84.494 19.388 83.752 18.576 82.912ZM23.504 88.82L22.692 89.324C23.644 90.416 24.386 91.424 24.946 92.32L25.828 91.704C25.282 90.892 24.512 89.926 23.504 88.82ZM21.754 82.562V84.228C21.74 84.844 21.712 85.432 21.67 86.02H17.204V87H21.558C21.376 88.4 21.068 89.618 20.634 90.654C19.906 92.236 18.59 93.496 16.714 94.448L17.288 95.344C19.192 94.406 20.55 93.104 21.376 91.438C21.95 90.234 22.342 88.764 22.566 87H27.41C27.41 88.792 27.354 90.458 27.242 91.984C27.13 93.496 26.668 94.294 25.884 94.35C25.296 94.35 24.652 94.322 23.938 94.266L24.204 95.246C24.68 95.274 25.254 95.302 25.94 95.302C26.878 95.302 27.536 94.756 27.9 93.664C28.25 92.572 28.432 90.024 28.432 86.02H22.664C22.706 85.446 22.734 84.844 22.748 84.228V82.562H21.754ZM36.496 84.606V93.468H30.756V94.434H43.258V93.468H37.532V84.606H42.348V83.64H31.694V84.606H36.496ZM50.594 83.08V87.126H56.404V83.08H50.594ZM55.424 86.216H51.588V83.976H55.424V86.216ZM50.048 88.428V89.352H52.918V91.144H50.37V92.054H52.918V93.944H49.488V94.896H57.342V93.944H53.954V92.054H56.572V91.144H53.954V89.352H57.006V88.428H50.048ZM44.812 86.398V87.364H46.758C46.31 88.96 45.554 90.374 44.49 91.62L44.924 92.74C45.722 91.634 46.366 90.402 46.856 89.03V95.344H47.822V89.03C48.214 89.548 48.704 90.248 49.264 91.116L49.824 90.276C49.152 89.478 48.48 88.75 47.822 88.106V87.364H49.628V86.398H47.822V84.2C48.522 84.06 49.194 83.906 49.824 83.724L49.474 82.772C48.13 83.192 46.576 83.486 44.826 83.654L45.022 84.606C45.652 84.536 46.268 84.452 46.856 84.368V86.398H44.812ZM60.436 84.914V91.564C59.848 91.732 59.246 91.886 58.616 92.04L58.91 93.034C60.534 92.6 61.962 92.124 63.194 91.606V90.598C62.648 90.822 62.074 91.032 61.472 91.242V84.914H63.096V83.934H58.77V84.914H60.436ZM63.628 83.164V84.144H67.044C66.974 84.662 66.876 85.166 66.736 85.642H64.272V92.222H65.238V86.566H69.732V92.222H70.712V85.642H67.744C67.856 85.166 67.954 84.676 68.038 84.144H71.384V83.164H63.628ZM68.626 92.25L67.954 92.894C69.158 93.818 70.11 94.686 70.81 95.498L71.538 94.77C70.754 93.93 69.774 93.09 68.626 92.25ZM66.918 87.462V89.87C66.876 91.088 66.554 92.082 65.966 92.838C65.322 93.566 64.174 94.154 62.55 94.588L63.096 95.456C64.776 94.98 65.98 94.322 66.722 93.496C67.478 92.586 67.87 91.382 67.926 89.87V87.462H66.918ZM83.704 83.248H74.31V95.414H75.332V94.476H82.696V95.386H83.704V83.248ZM75.332 93.496V90.864H82.696V93.496H75.332ZM75.332 89.94V87.476H82.696V89.94H75.332ZM75.332 86.552V84.228H82.696V86.552H75.332ZM87.792 82.786L87.106 83.444C88.1 84.242 88.884 84.984 89.444 85.67L90.172 84.956C89.528 84.228 88.73 83.514 87.792 82.786ZM95.926 95.148H99.132L99.37 94.14C99.006 94.168 98.474 94.182 97.802 94.196C97.116 94.21 96.444 94.224 95.786 94.224C94.708 94.224 93.798 94.21 93.07 94.196C92.258 94.168 91.628 94.056 91.208 93.86C90.816 93.678 90.466 93.384 90.13 92.978C90.018 92.852 89.906 92.74 89.794 92.656V87.42H86.854V88.344H88.856V92.6C88.282 92.852 87.624 93.566 86.882 94.742L87.638 95.428C88.408 94.14 88.954 93.496 89.29 93.496C89.458 93.496 89.64 93.608 89.822 93.846C90.256 94.35 90.746 94.7 91.292 94.868C91.852 95.022 92.566 95.106 93.462 95.12C94.344 95.134 95.17 95.148 95.926 95.148ZM91.138 84.774V85.712H92.79V86.818C92.79 87.406 92.748 87.966 92.678 88.498H90.648V89.45H92.496C92.188 90.766 91.586 91.746 90.704 92.376L91.306 93.188C92.384 92.376 93.112 91.13 93.476 89.45H95.968V93.468H96.948V89.45H99.174V88.498H96.948V85.712H98.726V84.774H96.948V82.562H95.968V84.774H93.756V82.548H92.79V84.774H91.138ZM93.756 85.712H95.968V88.498H93.644C93.714 87.91 93.756 87.266 93.756 86.594V85.712ZM105.95 83.458V84.452H112.656V83.458H105.95ZM105.572 87.014V88.008H109.982V93.874C109.982 94.238 109.744 94.42 109.296 94.42C108.68 94.42 108.05 94.392 107.378 94.35L107.588 95.344H109.646C110.542 95.344 111.004 94.938 111.004 94.126V88.008H113.272V87.014H105.572ZM103.738 82.688C103.08 84.004 102.03 85.18 100.574 86.216L100.868 87.224C102.604 86.034 103.864 84.662 104.648 83.108L103.738 82.688ZM104.396 85.88C103.612 87.434 102.366 88.806 100.658 90.01L100.952 91.018C101.624 90.556 102.226 90.066 102.786 89.562V95.4H103.78V88.54C104.396 87.84 104.9 87.084 105.306 86.3L104.396 85.88ZM115.512 82.856L114.826 83.514C115.68 84.172 116.352 84.802 116.828 85.39L117.486 84.718C116.954 84.102 116.296 83.472 115.512 82.856ZM115.288 86.3L114.602 86.944C115.428 87.658 116.072 88.33 116.548 88.96L117.206 88.302C116.688 87.63 116.044 86.972 115.288 86.3ZM116.52 90.066C115.988 91.69 115.372 93.286 114.672 94.84L115.596 95.232C116.24 93.72 116.842 92.11 117.374 90.402L116.52 90.066ZM122.736 83.248H118.046V91.872H118.942V84.116H121.84V91.788H122.736V83.248ZM121.238 92.446L120.622 93.034C121.518 93.874 122.204 94.658 122.708 95.4L123.38 94.728C122.806 93.972 122.092 93.202 121.238 92.446ZM119.978 85.082V89.52C119.95 90.822 119.74 91.872 119.376 92.684C118.984 93.468 118.284 94.098 117.276 94.574L117.808 95.414C118.844 94.91 119.6 94.21 120.062 93.342C120.538 92.39 120.79 91.116 120.818 89.52V85.082H119.978ZM125.76 95.288C126.488 95.288 126.866 94.882 126.866 94.098V82.646H125.914V93.86C125.914 94.224 125.746 94.42 125.424 94.42C124.976 94.42 124.5 94.392 124.01 94.35L124.22 95.288H125.76ZM123.842 83.794V92.53H124.724V83.794H123.842ZM130.142 88.428V91.998H134.482V92.782H129.792V93.454H134.482V94.28H128.742V95.064H141.258V94.28H135.49V93.454H140.236V92.782H135.49V91.998H139.886V88.428H130.142ZM138.92 91.368H135.49V90.514H138.92V91.368ZM134.482 91.368H131.108V90.514H134.482V91.368ZM131.108 89.926V89.058H134.482V89.926H131.108ZM135.49 89.058H138.92V89.926H135.49V89.058ZM130.45 82.786V86.244H139.592V82.786H130.45ZM138.612 85.642H131.43V84.816H138.612V85.642ZM131.43 84.214V83.402H138.612V84.214H131.43ZM128.728 86.972V87.728H141.272V86.972H128.728ZM144.422 92.04L143.792 92.628C144.31 93.02 144.828 93.482 145.346 94.042C145.794 94.518 146.2 94.994 146.536 95.47L147.236 94.882C146.9 94.406 146.494 93.916 146.032 93.44C145.5 92.88 144.954 92.418 144.422 92.04ZM156.644 83.794V84.662H157.89V89.436H156.518V90.332H157.246V94.798H162.51V93.888H158.198V90.332H163.91V89.436H162.65V84.662H163.854V83.794H162.65V82.576H161.712V83.794H158.842V82.59H157.89V83.794H156.644ZM158.842 89.436V88.302H161.712V89.436H158.842ZM158.842 87.546V86.496H161.712V87.546H158.842ZM158.842 85.726V84.662H161.712V85.726H158.842ZM165.17 82.562V85.558H163.784V86.538H165.17C165.114 90.29 164.372 93.034 162.958 94.77L163.714 95.428C165.254 93.538 166.066 90.57 166.136 86.538H167.998C167.984 90.346 167.914 92.628 167.802 93.356C167.69 94 167.312 94.336 166.696 94.336C166.388 94.336 166.024 94.322 165.604 94.294L165.842 95.204C166.332 95.232 166.668 95.26 166.864 95.26C167.956 95.26 168.586 94.742 168.726 93.706C168.866 92.684 168.95 89.968 168.95 85.558H166.136V82.562H165.17ZM159.808 90.738C159.444 91.536 158.996 92.222 158.492 92.81L159.206 93.328C159.724 92.698 160.172 91.956 160.55 91.102L159.808 90.738ZM161.908 90.668L161.208 91.088C161.796 91.872 162.258 92.6 162.594 93.244L163.322 92.726C162.986 92.138 162.524 91.452 161.908 90.668ZM177.672 84.928C177.168 86.076 176.398 86.986 175.39 87.672L176.118 88.302C177.112 87.602 177.91 86.594 178.526 85.264L177.672 84.928ZM180.15 84.914L179.408 85.39C180.402 86.426 181.186 87.364 181.76 88.232L182.572 87.672C182.012 86.888 181.2 85.964 180.15 84.914ZM172.324 95.344C173.108 95.344 173.5 94.952 173.5 94.168V89.94C173.934 89.744 174.368 89.548 174.788 89.324V88.316C174.368 88.54 173.934 88.75 173.5 88.946V86.216H174.802V85.25H173.5V82.604H172.492V85.25H170.826V86.216H172.492V89.352C171.862 89.576 171.232 89.772 170.588 89.926L170.84 90.934C171.4 90.766 171.946 90.57 172.492 90.36V93.916C172.492 94.266 172.31 94.448 171.974 94.448C171.61 94.448 171.232 94.42 170.84 94.378L171.05 95.344H172.324ZM182.726 83.122H175.39V85.782H176.342V84.032H181.774V85.726H182.726V83.122ZM177.49 90.206C176.832 91.634 175.782 92.81 174.354 93.734L174.858 94.588C176.426 93.44 177.546 91.984 178.218 90.206H178.54V95.344H179.506V90.206H179.828C180.388 91.774 181.368 93.188 182.782 94.462L183.412 93.664C182.068 92.642 181.116 91.494 180.542 90.206H182.964V89.296H179.506V87.728H178.54V89.296H175.11V90.206H177.49Z" fill="white" fill-opacity="0.6"/>
</g>
</g>
<g id="&#229;&#139;&#152;&#232;&#174;&#190;_2" opacity="0.6">
<g id="Group">
<path id="Vector" d="M285.506 36.7668C285.475 35.9365 285.675 35.1831 285.937 34.3836C286.552 32.5231 286.567 30.6626 285.522 28.8636C283.769 25.8345 281.247 23.7588 277.987 22.5902C276.773 22.1597 275.466 21.9598 274.159 21.9598C270.838 21.9598 267.516 21.9752 264.18 21.9598C261.151 21.9444 258.46 22.9592 256.046 24.7275C254.37 25.9575 253.186 27.6028 252.217 29.4171C251.433 30.8932 251.556 32.4616 251.987 34.0145C252.217 34.8756 252.648 35.6905 252.525 36.6284C252.509 36.7514 252.571 36.8437 252.663 36.936C253.601 37.8431 253.663 39.0425 253.739 40.2264C253.755 40.4878 253.786 40.7338 253.816 40.9952C253.862 41.4411 253.801 41.8255 253.432 42.1484C252.832 42.6866 252.709 43.4861 252.602 44.2088C252.017 47.899 251.387 51.5739 250.772 55.2641C250.541 56.6633 250.203 58.0471 250.218 59.4771" stroke="white" stroke-width="2" stroke-miterlimit="10" stroke-linecap="round" stroke-linejoin="round"/>
<path id="Vector_2" d="M251.587 32.0003C248.204 32.1694 244.837 32.1079 241.454 32.031C240.316 32.0003 239.209 32.0157 238.071 32.0618C237.026 32.0925 235.95 32.2463 234.935 31.8311C234.766 31.7543 234.658 31.8004 234.55 31.8465C233.935 32.1079 233.274 32.0925 232.628 32.0618C231.629 32.031 230.968 32.6922 231.014 33.6916C231.045 34.3067 231.014 34.9217 231.014 35.5367C231.029 36.5823 231.567 37.1205 232.628 37.1512C233.243 37.1666 233.858 37.1512 234.473 37.1512C239.84 37.1512 245.221 37.1358 250.587 37.1666C251.249 37.1666 251.879 37.0282 252.509 36.8437" stroke="white" stroke-width="2" stroke-miterlimit="10" stroke-linecap="round" stroke-linejoin="round"/>
<path id="Vector_3" d="M251.741 32.0772C255.277 32.0772 258.798 32.1233 262.335 32.0464C263.411 32.0157 264.472 32.0003 265.564 32.0464C267.808 32.1387 270.069 32.0772 272.314 32.0772C272.806 32.0772 273.298 32.0772 273.774 31.8619C273.913 31.8004 274.097 31.7235 274.312 31.8311C274.881 32.1387 275.527 32.0772 276.142 32.0772C279.217 32.0772 282.277 32.0772 285.352 32.0772C289.12 32.0772 292.871 32.154 296.623 32.031C297.73 32.0003 298.822 32.0772 299.929 32.0618C300.974 32.0618 302.051 32.2463 303.066 31.8311C303.235 31.7543 303.342 31.8004 303.45 31.8465C304.065 32.1079 304.726 32.0618 305.372 32.0772C306.433 32.0772 306.971 32.6307 306.986 33.6916C306.986 34.3067 306.986 34.9217 306.986 35.5367C306.971 36.5823 306.433 37.1205 305.372 37.1512C304.757 37.1666 304.142 37.1512 303.527 37.1512C298.13 37.1512 292.733 37.1512 287.336 37.1512C286.844 37.1512 286.336 37.1666 285.875 36.9206C285.506 36.7207 285.322 36.9667 285.106 37.2127C284.322 38.1045 284.399 39.227 284.276 40.2879C284.245 40.5186 284.23 40.7492 284.199 40.9798C284.153 41.4257 284.215 41.8101 284.584 42.133C285.183 42.6712 285.306 43.4707 285.414 44.1934C285.998 47.8836 286.629 51.5585 287.244 55.2487C287.474 56.6479 287.813 58.0318 287.797 59.4617" stroke="white" stroke-width="2" stroke-miterlimit="10" stroke-linecap="round" stroke-linejoin="round"/>
<path id="Vector_4" d="M280.124 49.8825C278.741 49.7134 277.357 49.8364 275.988 49.8056C275.758 49.8056 275.527 49.8056 275.296 49.8056C274.374 49.7749 274.082 49.4981 274.082 48.5756C274.066 47.6222 274.159 46.6536 273.544 45.8079C273.39 45.5926 273.574 45.3312 273.636 45.1313C273.928 44.2088 274.066 43.2555 274.082 42.2868C274.097 40.2725 273.175 38.7349 271.468 37.7816C269.792 36.8437 268.008 36.8745 266.348 37.92C264.472 39.104 263.78 40.903 263.98 43.0556C264.041 43.809 264.272 44.5471 264.426 45.2851C264.472 45.485 264.61 45.6541 264.441 45.9001C263.964 46.6074 263.949 47.4377 263.964 48.268C263.98 49.6057 263.764 49.7749 262.442 49.8056C260.935 49.8364 259.428 49.7134 257.922 49.8825" stroke="white" stroke-width="2" stroke-miterlimit="10" stroke-linecap="round" stroke-linejoin="round"/>
<path id="Vector_5" d="M269.008 59.9384C269.008 65.9042 269.008 71.8547 269.008 77.8206" stroke="white" stroke-width="2" stroke-miterlimit="10" stroke-linecap="round" stroke-linejoin="round"/>
<path id="Vector_6" d="M274.066 31.6928C274.066 31.0008 274.066 30.3089 274.066 29.617C274.066 28.2178 273.298 27.2337 271.914 27.0954C269.946 26.8955 267.978 26.9416 266.009 27.08C264.856 27.1722 264.011 28.1102 263.949 29.4479C263.918 30.1859 263.949 30.924 263.949 31.6774" stroke="white" stroke-width="2" stroke-miterlimit="10" stroke-linecap="round" stroke-linejoin="round"/>
<path id="Vector_7" d="M241.147 21.56C241.177 20.0839 240.947 18.7155 239.686 17.716C238.486 16.7627 237.149 16.609 235.78 17.2086C234.412 17.8237 233.566 18.9 233.551 20.4837C233.551 20.8373 233.551 21.2064 233.551 21.56" stroke="white" stroke-width="2" stroke-miterlimit="10" stroke-linecap="round" stroke-linejoin="round"/>
<path id="Vector_8" d="M304.449 21.56C304.388 20.8988 304.542 20.2377 304.311 19.5611C303.711 17.839 302.297 16.8242 300.544 16.8704C298.853 16.9165 297.269 18.2696 297.007 19.7918C296.915 20.3761 296.854 20.9604 296.854 21.56" stroke="white" stroke-width="2" stroke-miterlimit="10" stroke-linecap="round" stroke-linejoin="round"/>
<path id="Vector_9" d="M233.474 87.6304C232.874 87.8765 232.29 88.1071 231.767 88.5376C230.752 89.3833 230.752 91.3207 231.783 92.2279C232.89 93.1966 234.765 93.0582 235.534 91.782C235.842 91.2746 236.349 90.7364 236.18 90.1829C235.934 89.4141 235.611 88.5684 234.765 88.1686C234.381 87.9841 233.997 87.815 233.612 87.6304" stroke="white" stroke-width="2" stroke-miterlimit="10" stroke-linecap="round" stroke-linejoin="round"/>
<path id="Vector_10" d="M304.449 70.3633C304.88 70.1326 305.326 69.9174 305.756 69.6713C306.956 68.9794 307.325 67.6263 306.679 66.3809C306.048 65.1508 304.803 64.7049 303.527 65.2277C302.512 65.6429 302.051 66.5654 301.728 67.4726C301.574 67.9185 302.097 68.4566 302.389 68.9025C302.85 69.6098 303.604 69.9789 304.372 70.2864" stroke="white" stroke-width="2" stroke-miterlimit="10" stroke-linecap="round" stroke-linejoin="round"/>
<path id="Vector_11" d="M236.318 67.5341C236.011 66.919 235.75 66.2733 235.258 65.7659C234.581 65.0739 233.781 64.8126 232.874 65.0893C231.783 65.4276 231.075 66.181 231.045 67.3803C231.014 68.3644 231.321 69.1947 232.259 69.6867C232.69 69.9174 233.136 70.148 233.489 70.3325C234.95 69.9173 235.78 68.9025 236.334 67.611" stroke="white" stroke-width="2" stroke-miterlimit="10" stroke-linecap="round" stroke-linejoin="round"/>
<path id="Vector_12" d="M304.526 87.6304C305.049 87.8611 305.618 87.9995 306.064 88.3992C306.94 89.168 307.202 90.1521 306.833 91.2438C306.479 92.274 305.725 92.7506 304.68 92.8583C303.542 92.9659 302.62 92.3201 302.22 91.4129C302.035 91.0131 301.635 90.598 301.789 90.1982C302.081 89.4756 302.312 88.6606 303.142 88.2609C303.557 88.061 303.942 87.8303 304.372 87.6612" stroke="white" stroke-width="2" stroke-miterlimit="10" stroke-linecap="round" stroke-linejoin="round"/>
<path id="Vector_13" d="M263.857 67.5341C261.304 67.5341 258.737 67.5495 256.184 67.5341C254.847 67.5187 253.54 67.6878 252.186 67.5802C249.957 67.4111 247.681 67.5341 245.436 67.5341C244.944 67.5341 244.452 67.5341 243.976 67.7493C243.868 67.7955 243.73 67.8877 243.514 67.7801C242.715 67.4111 241.838 67.5341 240.993 67.5341C239.455 67.5341 237.918 67.5341 236.395 67.5341" stroke="white" stroke-width="2" stroke-miterlimit="10" stroke-linecap="round" stroke-linejoin="round"/>
<path id="Vector_14" d="M236.395 90.3213C238.179 90.3213 239.978 90.3213 241.762 90.3213C242.331 90.3213 242.915 90.352 243.438 90.0752C243.545 90.0137 243.653 89.983 243.745 90.0137C245.375 90.6288 247.066 90.2136 248.742 90.3059C249.865 90.3674 250.987 90.3213 252.125 90.3213C252.602 90.3213 253.063 90.3213 253.509 90.0906C253.678 89.9983 253.847 89.9676 254.047 90.0752C254.57 90.352 255.154 90.3213 255.723 90.3213C257.814 90.3213 259.921 90.3213 262.012 90.3213C262.581 90.3213 263.165 90.352 263.688 90.0752C263.795 90.0137 263.903 89.983 263.995 90.0137C265.625 90.6288 267.316 90.2136 268.992 90.3059C270.115 90.3674 271.237 90.3213 272.375 90.3213C272.852 90.3213 273.313 90.3213 273.759 90.0906C273.928 89.9983 274.097 89.9676 274.297 90.0752C274.82 90.352 275.404 90.3213 275.973 90.3213C278.064 90.3213 280.171 90.3213 282.262 90.3213C282.831 90.3213 283.415 90.352 283.938 90.0752C284.045 90.0137 284.153 89.983 284.245 90.0137C285.875 90.6288 287.567 90.2136 289.243 90.3059C290.365 90.3674 291.487 90.3213 292.625 90.3213C293.102 90.3213 293.563 90.3213 294.009 90.0906C294.147 90.0291 294.363 89.9522 294.455 90.0137C295.27 90.475 296.146 90.2905 296.992 90.3059C298.53 90.3366 300.067 90.3059 301.589 90.3059" stroke="white" stroke-width="2" stroke-miterlimit="10" stroke-linecap="round" stroke-linejoin="round"/>
<path id="Vector_15" d="M301.605 67.5341C299.76 67.5341 297.915 67.5341 296.085 67.5341C295.593 67.5341 295.101 67.5341 294.624 67.7494C294.486 67.8109 294.301 67.8878 294.086 67.7801C293.517 67.4726 292.871 67.5341 292.256 67.5341C290.165 67.5341 288.059 67.5341 285.967 67.5341C285.475 67.5341 284.983 67.5341 284.507 67.7494C284.368 67.8109 284.184 67.8878 283.969 67.7801C283.4 67.4726 282.754 67.5341 282.139 67.5341C279.479 67.5341 276.819 67.5341 274.159 67.5341" stroke="white" stroke-width="2" stroke-miterlimit="10" stroke-linecap="round" stroke-linejoin="round"/>
<path id="Vector_16" d="M258.875 75.1298C250.557 75.1298 242.254 75.1298 233.935 75.1298" stroke="white" stroke-width="2" stroke-miterlimit="10" stroke-linecap="round" stroke-linejoin="round"/>
<path id="Vector_17" d="M303.988 82.7255C294.609 82.7255 285.214 82.6948 275.835 82.7717C274.574 82.787 273.328 82.7255 272.068 82.7255C269.946 82.7255 267.824 82.7255 265.702 82.7255C265.21 82.7255 264.718 82.7255 264.241 82.9408C264.103 83.0023 263.918 83.0792 263.703 82.9715C263.134 82.664 262.488 82.7255 261.873 82.7255C252.586 82.7255 243.299 82.7255 234.027 82.7255" stroke="white" stroke-width="2" stroke-miterlimit="10" stroke-linecap="round" stroke-linejoin="round"/>
<path id="Vector_18" d="M304.111 75.1298C295.793 75.1298 287.459 75.1298 279.141 75.1298" stroke="white" stroke-width="2" stroke-miterlimit="10" stroke-linecap="round" stroke-linejoin="round"/>
<path id="Vector_19" d="M233.551 21.6369C233.12 21.7753 232.705 21.9137 232.244 21.9598C231.475 22.052 231.044 22.6056 231.014 23.4051C230.998 24.0663 230.998 24.7275 231.014 25.404C231.029 26.3573 231.444 26.9108 232.398 27.0031C233.166 27.08 233.935 27.0031 234.719 27.2799C235.042 27.4029 235.519 27.0185 235.934 27.0339C237.195 27.0492 238.44 27.0185 239.701 27.1876C240.731 27.326 241.854 27.0646 242.915 26.834C243.437 26.711 243.699 26.1574 243.684 25.5578C243.684 24.8197 243.684 24.0817 243.684 23.3282C243.684 22.6825 243.345 22.1904 242.761 22.0367C241.946 21.8368 241.131 21.5446 240.224 21.8368C239.317 22.1289 238.333 21.929 237.395 21.929C236.395 21.929 235.396 22.0213 234.396 21.8675C234.12 21.8214 233.874 21.7445 233.628 21.6369" stroke="white" stroke-width="2" stroke-miterlimit="10" stroke-linecap="round" stroke-linejoin="round"/>
<path id="Vector_20" d="M296.777 21.6369C296.377 21.7445 295.977 21.8983 295.547 21.9598C294.701 22.0982 294.332 22.6056 294.317 23.482C294.317 24.1739 294.301 24.8658 294.317 25.5578C294.332 26.3727 294.732 26.7725 295.547 26.9416C296.392 27.1107 297.253 26.8955 298.099 27.2799C298.391 27.4183 298.899 27.0185 299.314 27.0339C300.575 27.0492 301.851 26.8186 303.065 27.2645C303.235 27.326 303.342 27.2799 303.45 27.2337C304.019 26.9877 304.618 27.0185 305.218 27.0031C306.479 26.9877 306.986 26.4803 306.986 25.2349C306.986 24.6198 307.017 24.0048 306.986 23.3898C306.956 22.8055 306.802 22.2519 306.141 22.0982C305.341 21.9137 304.557 21.4524 303.68 21.8675C303.434 21.9905 303.173 21.9444 302.912 21.9444C301.528 21.9444 300.144 21.929 298.776 21.9598C298.13 21.9752 297.53 21.8983 296.93 21.6523" stroke="white" stroke-width="2" stroke-miterlimit="10" stroke-linecap="round" stroke-linejoin="round"/>
<path id="Vector_21" d="M253.893 41.6717C254.647 42.1484 255.139 42.8403 255.431 43.6706C255.969 45.2082 256.399 46.7919 257.076 48.2527C257.583 49.3597 257.66 50.313 257.399 51.497C256.999 53.296 256.968 55.1718 256.722 57.0016C256.615 57.8165 256.507 58.6314 256.507 59.4617" stroke="white" stroke-width="2" stroke-miterlimit="10" stroke-linecap="round" stroke-linejoin="round"/>
<path id="Vector_22" d="M284.122 41.6717C283.369 42.1484 282.877 42.8403 282.585 43.6706C282.046 45.2082 281.616 46.7919 280.939 48.2527C280.432 49.3597 280.355 50.313 280.617 51.497C281.016 53.296 281.047 55.1718 281.293 57.0016C281.401 57.8165 281.508 58.6314 281.508 59.4617" stroke="white" stroke-width="2" stroke-miterlimit="10" stroke-linecap="round" stroke-linejoin="round"/>
<path id="Vector_23" d="M264.626 45.6541C265.256 45.8386 265.825 46.1615 266.394 46.4998C268.131 47.53 269.869 47.53 271.606 46.4998C272.175 46.1615 272.744 45.8386 273.375 45.6541" stroke="white" stroke-width="2" stroke-miterlimit="10" stroke-linecap="round" stroke-linejoin="round"/>
<path id="Vector_24" d="M304.449 70.4401C304.449 71.4703 304.542 72.5005 304.419 73.5C304.296 74.5917 304.326 75.6372 304.419 76.7289C304.526 78.0512 304.449 79.3889 304.449 80.7113C304.449 81.3109 304.495 81.926 304.142 82.4795C304.096 82.5564 304.065 82.6948 304.111 82.787C304.772 84.2785 304.326 85.8622 304.449 87.3998C304.449 87.4459 304.449 87.5074 304.449 87.5536" stroke="white" stroke-width="2" stroke-miterlimit="10" stroke-linecap="round" stroke-linejoin="round"/>
<path id="Vector_25" d="M233.551 70.4401C233.551 71.4703 233.458 72.5005 233.582 73.5C233.705 74.5917 233.674 75.6372 233.582 76.7289C233.474 78.0512 233.551 79.3889 233.551 80.7113C233.551 81.3109 233.505 81.926 233.858 82.4795C233.904 82.5564 233.935 82.6948 233.889 82.787C233.228 84.2785 233.674 85.8622 233.551 87.3998C233.551 87.4459 233.551 87.5074 233.551 87.5536" stroke="white" stroke-width="2" stroke-miterlimit="10" stroke-linecap="round" stroke-linejoin="round"/>
<path id="Vector_26" d="M243.684 67.9185C243.684 75.2682 243.684 82.6179 243.684 89.983" stroke="white" stroke-width="2" stroke-miterlimit="10" stroke-linecap="round" stroke-linejoin="round"/>
<path id="Vector_27" d="M284.199 67.9185C284.199 75.2682 284.199 82.6179 284.199 89.983" stroke="white" stroke-width="2" stroke-miterlimit="10" stroke-linecap="round" stroke-linejoin="round"/>
<path id="Vector_28" d="M253.816 67.9185C253.816 75.2682 253.816 82.6179 253.816 89.983" stroke="white" stroke-width="2" stroke-miterlimit="10" stroke-linecap="round" stroke-linejoin="round"/>
<path id="Vector_29" d="M294.394 75.2836C294.224 80.1731 294.363 85.078 294.317 89.983" stroke="white" stroke-width="2" stroke-miterlimit="10" stroke-linecap="round" stroke-linejoin="round"/>
<path id="Vector_30" d="M294.317 67.9185C294.317 70.3171 294.317 72.7312 294.317 75.1298" stroke="white" stroke-width="2" stroke-miterlimit="10" stroke-linecap="round" stroke-linejoin="round"/>
<path id="Vector_31" d="M274.066 83.1099C274.066 85.4009 274.066 87.692 274.066 89.983" stroke="white" stroke-width="2" stroke-miterlimit="10" stroke-linecap="round" stroke-linejoin="round"/>
<path id="Vector_32" d="M263.934 83.1099C263.934 85.4009 263.934 87.692 263.934 89.983" stroke="white" stroke-width="2" stroke-miterlimit="10" stroke-linecap="round" stroke-linejoin="round"/>
<path id="Vector_33" d="M279.125 59.9384C279.879 59.9384 280.647 60.0152 281.355 59.6309C281.416 59.6001 281.524 59.5694 281.585 59.6001C283.061 60.2612 284.614 59.7539 286.106 59.9537C286.905 60.0614 287.582 59.3387 288.412 59.7692C289.104 60.1229 289.888 59.8769 290.626 59.9384" stroke="white" stroke-width="2" stroke-miterlimit="10" stroke-linecap="round" stroke-linejoin="round"/>
<path id="Vector_34" d="M247.358 59.9384C248.266 59.9076 249.188 60.0921 250.049 59.6309C250.157 59.5694 250.249 59.5847 250.357 59.6309C251.987 60.2613 253.724 60.0921 255.323 59.8461C256.569 59.6616 257.691 60.1536 258.86 59.9384" stroke="white" stroke-width="2" stroke-miterlimit="10" stroke-linecap="round" stroke-linejoin="round"/>
<path id="Vector_35" d="M262.012 74.8223C263.288 74.4994 264.303 74.9453 265.164 75.8832C265.533 76.283 266.04 76.5444 266.455 76.8981C267.993 78.1896 269.9 78.2204 271.453 76.9749C272.129 76.4214 272.852 75.9294 273.513 75.3451C274.036 74.8838 274.528 74.4994 275.297 74.8069C275.496 74.8838 275.758 74.8223 275.988 74.8223" stroke="white" stroke-width="2" stroke-miterlimit="10" stroke-linecap="round" stroke-linejoin="round"/>
<path id="Vector_36" d="M269.085 77.959C268.885 78.7739 269.146 79.6042 269.008 80.4191" stroke="white" stroke-width="2" stroke-miterlimit="10" stroke-linecap="round" stroke-linejoin="round"/>
<path id="Vector_37" d="M274.528 73.0541C274.482 73.5922 274.42 74.1304 274.374 74.6685" stroke="white" stroke-width="2" stroke-miterlimit="10" stroke-linecap="round" stroke-linejoin="round"/>
<path id="Vector_38" d="M263.472 73.0541C263.472 73.5922 263.734 74.115 263.626 74.6685" stroke="white" stroke-width="2" stroke-miterlimit="10" stroke-linecap="round" stroke-linejoin="round"/>
</g>
</g>
</g>
</g>
</g>
<defs>
<linearGradient id="paint0_linear_683_19115" x1="171.5" y1="2.60835e-06" x2="186.136" y2="106.464" gradientUnits="userSpaceOnUse">
<stop stop-color="#8561EA"/>
<stop offset="1" stop-color="#645CE9"/>
</linearGradient>
</defs>
</svg>
