<svg width="18" height="18" viewBox="0 0 18 18" fill="none" xmlns="http://www.w3.org/2000/svg">
<path d="M9 5.25C6.93 5.25 5.25 6.93 5.25 9C5.25 11.07 6.93 12.75 9 12.75C11.07 12.75 12.75 11.07 12.75 9C12.75 6.93 11.07 5.25 9 5.25ZM9 1.5C4.86 1.5 1.5 4.86 1.5 9C1.5 13.14 4.86 16.5 9 16.5C13.14 16.5 16.5 13.14 16.5 9C16.5 4.86 13.14 1.5 9 1.5ZM9 15C5.685 15 3 12.315 3 9C3 5.685 5.685 3 9 3C12.315 3 15 5.685 15 9C15 12.315 12.315 15 9 15Z" fill="url(#paint0_radial_687_8054)"/>
<defs>
<radialGradient id="paint0_radial_687_8054" cx="0" cy="0" r="1" gradientUnits="userSpaceOnUse" gradientTransform="translate(4.42 3.74654) rotate(46.0555) scale(14.7847 28.9277)">
<stop stop-color="#3340A0"/>
<stop offset="0.937833" stop-color="#2C3580"/>
</radialGradient>
</defs>
</svg>
