<svg width="24" height="25" viewBox="0 0 24 25" fill="none" xmlns="http://www.w3.org/2000/svg">
<path d="M20 5.5H16.83L15 3.5H9L7.17 5.5H4C2.9 5.5 2 6.4 2 7.5V19.5C2 20.6 2.9 21.5 4 21.5H11V19.41C8.17 18.93 6 16.47 6 13.5H8C8 15.71 9.79 17.5 12 17.5C14.21 17.5 16 15.71 16 13.5H18C18 16.47 15.83 18.93 13 19.41V21.5H20C21.1 21.5 22 20.6 22 19.5V7.5C22 6.4 21.1 5.5 20 5.5ZM14 13.5C14 14.6 13.1 15.5 12 15.5C10.9 15.5 10 14.6 10 13.5V9.5C10 8.4 10.9 7.5 12 7.5C13.1 7.5 14 8.4 14 9.5V13.5Z" fill="#BDBDBD"/>
</svg>
